<?xml version="1.0" encoding="UTF-8"?><svg id="Calque_4" xmlns="http://www.w3.org/2000/svg" viewBox="0 0 512.68 512.68"><path d="m225.99,413.55c-2.08,0-4.06-.86-5.48-2.38L75.23,255.72c-18.52-18.22-29.14-44.41-29.14-71.89,0-53.62,40.78-97.25,90.91-97.25,24.76,0,47.73,10.01,64.68,28.18l24.3,25.45,24.36-25.51c16.89-18.11,39.86-28.12,64.62-28.12,50.13,0,90.91,43.63,90.91,97.25,0,8.38-.99,16.75-2.94,24.86-.8,3.32-3.73,5.68-7.15,5.75-12.87.26-24.82,5.61-33.63,15.06l-20.23,21.19c-1.42,1.48-3.38,2.32-5.43,2.32s-4.01-.84-5.43-2.32l-20.17-21.12c-9.13-9.79-21.42-15.15-34.66-15.15-27,0-48.97,23.89-48.97,53.27,0,15.29,5.84,29.78,16.03,39.77.08.08.16.16.23.24l37.54,40.17c2.7,2.88,2.7,7.37,0,10.25l-49.59,53.07c-1.42,1.52-3.4,2.38-5.48,2.38ZM137,101.59c-41.85,0-75.9,36.89-75.9,82.24,0,23.53,9.02,45.87,24.75,61.28.08.08.16.16.23.24l139.9,149.7,39.32-42.08-32.64-34.93c-12.98-12.79-20.42-31.14-20.42-50.37,0-37.65,28.7-68.28,63.99-68.28,17.44,0,33.63,7.05,45.57,19.85l14.69,15.38,14.75-15.44c10.17-10.9,23.58-17.66,38.22-19.35.94-5.27,1.41-10.63,1.41-16.01,0-45.35-34.05-82.24-75.9-82.24-20.55,0-39.62,8.31-53.7,23.41l-29.85,31.26c-1.42,1.48-3.38,2.32-5.43,2.32s-4.01-.84-5.43-2.32l-29.79-31.19c-14.14-15.16-33.22-23.47-53.76-23.47Z" style="stroke-width:0px;"/><path d="m410.66,215.34c-15.56,0-29.87,6.52-40.08,17.47l-20.17,21.12-20.17-21.12c-10.21-10.95-24.53-17.47-40.08-17.47-31.19,0-56.48,27.21-56.48,60.77,0,17.81,6.95,34.02,18.29,45.13l98.45,105.35,98.45-105.35c11.34-11.12,18.29-27.32,18.29-45.13,0-33.56-25.29-60.77-56.48-60.77Z" style="fill:#ffe09d; stroke:#ffe09d; stroke-linecap:round; stroke-linejoin:round; stroke-width:5.63px;"/><path d="m336.5,425.66c-2.08,0-4.06-.86-5.48-2.38l-98.34-105.23c-12.98-12.79-20.42-31.14-20.42-50.37,0-37.65,28.7-68.28,63.99-68.28,17.44,0,33.63,7.05,45.57,19.85l14.69,15.38,14.75-15.44c11.88-12.74,28.07-19.79,45.51-19.79,35.28,0,63.99,30.63,63.99,68.28,0,19.23-7.44,37.58-20.42,50.37l-98.34,105.23c-1.42,1.52-3.4,2.38-5.48,2.38Zm-60.26-211.25c-27,0-48.97,23.89-48.97,53.27,0,15.29,5.84,29.78,16.03,39.77.08.08.16.16.23.24l92.97,99.48,92.97-99.48c.07-.08.15-.16.23-.24,10.19-9.99,16.03-24.48,16.03-39.77,0-29.37-21.97-53.27-48.97-53.27-13.24,0-25.52,5.36-34.59,15.08l-20.23,21.19c-1.42,1.48-3.38,2.32-5.43,2.32s-4.01-.84-5.43-2.32l-20.17-21.12c-9.13-9.79-21.42-15.15-34.66-15.15Z" style="stroke-width:0px;"/></svg>