<?xml version="1.0" encoding="utf-8"?>
<!-- Generator: Adobe Illustrator 27.8.0, SVG Export Plug-In . SVG Version: 6.00 Build 0)  -->
<svg version="1.1" id="Calque_2_00000057865080424469634310000006159139428330451593_"
	 xmlns="http://www.w3.org/2000/svg" xmlns:xlink="http://www.w3.org/1999/xlink" x="0px" y="0px" viewBox="0 0 489.9 137.1"
	 style="enable-background:new 0 0 489.9 137.1;" xml:space="preserve">
<style type="text/css">
	.st0{fill:url(#SVGID_1_);}
	.st1{fill:#E88BB2;}
	.st2{fill:url(#SVGID_00000069398229148038861490000015539934401896604813_);}
	.st3{fill:url(#SVGID_00000006677697475566615520000004181841610691856280_);}
	.st4{fill:url(#SVGID_00000170272384030707501270000016581778133718137266_);}
	.st5{fill:url(#SVGID_00000072276386782022744360000014102950615388862392_);}
	.st6{fill:url(#SVGID_00000034778050052116083590000000119611750924420764_);}
	.st7{fill:url(#SVGID_00000134969190786166119630000015013508153848744888_);}
	.st8{fill:url(#SVGID_00000129174785925082154720000016816412394646002827_);}
</style>
<linearGradient id="SVGID_1_" gradientUnits="userSpaceOnUse" x1="230.462" y1="105.2903" x2="232.247" y2="17.7106">
	<stop  offset="0.2966" style="stop-color:#E88BB2"/>
	<stop  offset="0.3674" style="stop-color:#E087AC"/>
	<stop  offset="0.4772" style="stop-color:#CA7B9C"/>
	<stop  offset="0.6123" style="stop-color:#A66781"/>
	<stop  offset="0.7674" style="stop-color:#754D5C"/>
	<stop  offset="0.9373" style="stop-color:#362B2E"/>
	<stop  offset="1" style="stop-color:#1D1D1B"/>
</linearGradient>
<path class="st0" d="M198.2,77.9c9.4,14.7,21.7,27.1,33.9,39.5h-3.8c18.1-20.9,38.2-43.7,39.3-72.7c0.1-18.1-13.2-34.2-31-37.4
	c-23.9-4.7-45.8,13.8-46.8,37.9c-0.4,4.1,0.8,10.2,1.3,14.3c-1.1-4.2-3.1-10-3.2-14.3c-0.1-3.7-0.1-7.5,0.8-11.2
	c0.2-1,0.5-2.6,0.9-3.7c2.9-9.8,9.5-18.4,18.2-23.8c17.8-11.6,43.4-7.6,57,8.9c10.8,12.7,12.9,28.7,8.4,44.5
	c-4.7,19.6-17.6,35.9-31.1,50.4c-3.3,3.6-6.7,7.1-10.1,10.5c-0.9,1.1-2.6,1.2-3.6,0.1C217.1,107.7,205.5,94,198.2,77.9L198.2,77.9
	L198.2,77.9z"/>
<path class="st1" d="M266,93.7c13.1,4.1,21.4,10.3,21.4,17.4c0,12.6-26.1,22.5-59.5,22.5c-8.1,0-15.7-0.6-22.6-1.6
	c10.2,3.2,23.5,5.1,38.1,5.1c33.3,0,59.5-9.9,59.5-22.5C302.9,105,287.8,97,266,93.7L266,93.7z"/>
<path class="st1" d="M184.5,124c-3.1-1.3-5.2-4.3-5.4-7.6c-0.1-2.8,1.1-5.4,6.5-4.7c10.8,1.4,3.5,14.9,15.3,17.5
	C200.9,129.2,192.6,127.5,184.5,124L184.5,124z"/>
<path class="st1" d="M171.2,116.8c-2-1.4-3.2-3.7-2.9-6.2c0.2-2,1.4-3.7,5.1-2.4c7.4,2.6,0.8,11,8.8,14.6
	C182.2,122.8,176.5,120.4,171.2,116.8L171.2,116.8z"/>
<g>
	
		<linearGradient id="SVGID_00000181089390557325210630000011443392917949644426_" gradientUnits="userSpaceOnUse" x1="307.3487" y1="103.3222" x2="307.8911" y2="4.7762">
		<stop  offset="0.1811" style="stop-color:#7390B2"/>
		<stop  offset="0.3086" style="stop-color:#576A81"/>
		<stop  offset="0.4398" style="stop-color:#3E4955"/>
		<stop  offset="0.5578" style="stop-color:#2C3135"/>
		<stop  offset="0.657" style="stop-color:#212222"/>
		<stop  offset="0.7253" style="stop-color:#1D1D1B"/>
	</linearGradient>
	<path style="fill:url(#SVGID_00000181089390557325210630000011443392917949644426_);" d="M323,66.9h-18.4V26.8c0-2.5-1.6-4.2-4-4.2
		h-8.2c-2.5,0-4.2,1.6-4.2,4.2v61.7c0,2.5,1.6,4.2,4.2,4.2H323c2.5,0,4.2-1.6,4.2-4.2V71.1h0C327.1,68.5,325.5,66.9,323,66.9z"/>
	
		<linearGradient id="SVGID_00000013886923741527960250000003926557745087658159_" gradientUnits="userSpaceOnUse" x1="351.3874" y1="103.5646" x2="351.9298" y2="5.0186">
		<stop  offset="0.1524" style="stop-color:#7390B2"/>
		<stop  offset="0.2514" style="stop-color:#607690"/>
		<stop  offset="0.4169" style="stop-color:#43505E"/>
		<stop  offset="0.5618" style="stop-color:#2E343A"/>
		<stop  offset="0.6789" style="stop-color:#222323"/>
		<stop  offset="0.7535" style="stop-color:#1D1D1B"/>
	</linearGradient>
	<path style="fill:url(#SVGID_00000013886923741527960250000003926557745087658159_);" d="M367,66.9h-18.4V26.8c0-2.5-1.6-4.2-4-4.2
		h-8.2c-2.5,0-4.2,1.6-4.2,4.2v61.7c0,2.5,1.6,4.2,4.2,4.2H367c2.5,0,4.2-1.6,4.2-4.2V71.1h0C371.2,68.5,369.5,66.9,367,66.9z"/>
	
		<linearGradient id="SVGID_00000020370050704991268130000018095671391650033322_" gradientUnits="userSpaceOnUse" x1="403.3243" y1="103.8505" x2="403.8667" y2="5.3045">
		<stop  offset="0.1346" style="stop-color:#7390B2"/>
		<stop  offset="0.2483" style="stop-color:#5F758E"/>
		<stop  offset="0.425" style="stop-color:#434F5D"/>
		<stop  offset="0.5803" style="stop-color:#2E3439"/>
		<stop  offset="0.7063" style="stop-color:#222323"/>
		<stop  offset="0.7874" style="stop-color:#1D1D1B"/>
	</linearGradient>
	<path style="fill:url(#SVGID_00000020370050704991268130000018095671391650033322_);" d="M403.6,21.6c-18.4,0-29.4,14-29.4,37.6
		c0,23.5,10.2,34.5,29.4,34.5S433,81.8,433,59.2S422,21.6,403.6,21.6z M403.6,66.9c-6.8,0-10.9-5.4-10.9-14.4
		c0-9.8,4.8-17.4,10.9-17.4s10.8,7.6,10.8,17.4C414.4,61.5,410.4,66.9,403.6,66.9z"/>
	
		<linearGradient id="SVGID_00000183947837582169302880000009759711760231149481_" gradientUnits="userSpaceOnUse" x1="464.1539" y1="104.1853" x2="464.6964" y2="5.6394">
		<stop  offset="0.1275" style="stop-color:#7390B2"/>
		<stop  offset="0.1541" style="stop-color:#6D88A7"/>
		<stop  offset="0.2912" style="stop-color:#516276"/>
		<stop  offset="0.4206" style="stop-color:#3A444E"/>
		<stop  offset="0.5388" style="stop-color:#2A2F32"/>
		<stop  offset="0.6419" style="stop-color:#202221"/>
		<stop  offset="0.7184" style="stop-color:#1D1D1B"/>
	</linearGradient>
	<path style="fill:url(#SVGID_00000183947837582169302880000009759711760231149481_);" d="M485.7,22.7h-8.2c-2.5,0-4.2,1.6-4.2,4.2
		v39.3l-10.5-39.3c-0.7-2.4-3.2-4.1-6-4.1h-14.3c-2.2,0.2-3.6,1.8-3.6,4.2v61.7c0,2.5,1.6,4.2,4.2,4.2h8.2c2.5,0,4-1.6,4-4.2V52
		l9.4,36.5c0.6,2.3,3.1,4.1,5.9,4.1h15c2.5,0,4.2-1.6,4.2-4.2V26.8h0C489.9,24.3,488.2,22.7,485.7,22.7z"/>
</g>
<path class="st1" d="M230.5,24.6c-11.7,0-18.6,9-18.6,24.2s6.3,22.1,18.6,22.1S249,63.4,249,48.8S242.1,24.6,230.5,24.6z
	 M230.5,55.3c-4.2,0-8.7-2.9-8.7-11.1c0-7.5,3.8-13.1,8.7-13.1s8.6,5.7,8.6,13.1C239.1,52.4,234.6,55.3,230.5,55.3z"/>
<g>
	
		<linearGradient id="SVGID_00000162343539122905042390000012790930559839184536_" gradientUnits="userSpaceOnUse" x1="35.31" y1="99.0193" x2="35.31" y2="40.9913">
		<stop  offset="0.1716" style="stop-color:#7390B2"/>
		<stop  offset="0.3238" style="stop-color:#667F9C"/>
		<stop  offset="0.6417" style="stop-color:#465362"/>
		<stop  offset="1" style="stop-color:#1D1D1B"/>
	</linearGradient>
	<path style="fill:url(#SVGID_00000162343539122905042390000012790930559839184536_);" d="M66.5,23.6H46.2c-1.5,0-3.3,0.5-4.1,4.3
		l-6.9,34.9l-6.9-34.9c-0.8-3.9-2.6-4.3-4.2-4.3H4.2c-2.5,0-4.2,1.6-4.2,4.2v61.7c0,2.5,1.6,4.2,4.2,4.2h8.2c2.5,0,4.1-1.6,4.1-4.2
		V41.3l10.6,47.9c0.7,3.1,1.9,4.4,4.2,4.4h8c2.2,0,3.3-1.2,4.1-4.4L54,41.3v48.1c0,2.5,1.6,4.2,4.2,4.2h8.2c2.5,0,4.2-1.6,4.2-4.2
		V27.7C70.6,25.2,69,23.6,66.5,23.6z"/>
	
		<linearGradient id="SVGID_00000181055586151171688520000004129357450642571139_" gradientUnits="userSpaceOnUse" x1="101.9899" y1="99.0193" x2="101.9899" y2="40.9913">
		<stop  offset="0.1892" style="stop-color:#7390B2"/>
		<stop  offset="0.2929" style="stop-color:#6F8BAC"/>
		<stop  offset="0.4362" style="stop-color:#657E9A"/>
		<stop  offset="0.6025" style="stop-color:#55677D"/>
		<stop  offset="0.7863" style="stop-color:#3D4854"/>
		<stop  offset="0.9822" style="stop-color:#202120"/>
		<stop  offset="1" style="stop-color:#1D1D1B"/>
	</linearGradient>
	<path style="fill:url(#SVGID_00000181055586151171688520000004129357450642571139_);" d="M115.4,27.8L115.4,27.8
		c-0.5-2.5-2.6-4.2-5.2-4.2H93.9c-2.6,0-4.7,1.7-5.2,4.3L75.6,89.7c-0.2,1.2-0.1,2.1,0.5,2.8c0.6,0.7,1.5,1,2.7,1h8.7
		c2.7,0,4.7-1.7,5.1-4.2l2.2-11.9h14.8l2.1,11.9c0.4,2.6,2.4,4.2,5.1,4.2h8.7c1.1,0,2-0.4,2.6-1c0.6-0.7,0.7-1.7,0.5-2.8L115.4,27.8
		z M97,64L97,64l5-27.4l5,27.4H97z"/>
	
		<linearGradient id="SVGID_00000029747281892516268670000007869122856717021319_" gradientUnits="userSpaceOnUse" x1="155.935" y1="99.0193" x2="155.935" y2="40.9913">
		<stop  offset="0.198" style="stop-color:#7390B2"/>
		<stop  offset="0.3115" style="stop-color:#708CAD"/>
		<stop  offset="0.4452" style="stop-color:#68819F"/>
		<stop  offset="0.5891" style="stop-color:#5B6F87"/>
		<stop  offset="0.74" style="stop-color:#485666"/>
		<stop  offset="0.895" style="stop-color:#30363C"/>
		<stop  offset="1" style="stop-color:#1D1D1B"/>
	</linearGradient>
	<path style="fill:url(#SVGID_00000029747281892516268670000007869122856717021319_);" d="M160.8,23.6h-23.2c-2.5,0-4.2,1.6-4.2,4.2
		v61.7c0,2.5,1.6,4.2,4.2,4.2h8.2c2.5,0,4-1.6,4-4.2V59.1h10.9c10.5,0,17.6-7.1,17.6-17.6S171.5,23.6,160.8,23.6z M157.6,45.8h-7.7
		v-8.7h7.7c2.5,0,4.3,1.8,4.3,4.3C161.9,43.9,160.2,45.8,157.6,45.8z"/>
</g>
</svg>
