<?xml version="1.0" encoding="UTF-8"?><svg id="Calque_1" xmlns="http://www.w3.org/2000/svg" viewBox="0 0 1080 1080"><path d="m324,714c-.15,1.09-.05,2.1-.61,3.25-1.75,3.59-3.31,7.27-4.49,11.14-1.03,3.38-3.59,6.12-5.2,9.32-3.31,6.55-7.48,12.62-11.61,18.68-2.53,3.72-5.41,7.16-8.38,10.57-4.81,5.52-9.26,11.36-14.6,16.38-4.55,4.28-9.66,7.92-14.53,11.82-7.91,6.35-16.94,10.45-25.89,14.84-6.12,3-12.56,5.08-19.07,7.08-5.32,1.64-10.75,2.91-16,4.8-.15.05-.31.14-.45.11-3.79-.73-7.3,1.3-11.09,1.06-3.82-.24-7.81.62-11.46-.21-5.31-1.21-10.72-1.82-16.02-3.41-5.83-1.75-11.31-4.11-16.85-6.43-2.27-.95-4.51-1.99-6.76-2.99,0-.33,0-.67,0-1,1.69-1.94,3.92-3.14,6-4.58,3.22-2.23,6.79-3.82,10.14-5.78,1.93-1.13,4.71-3.3,7.38-.63,4.49-.01,8.63,2.39,13.16,1.97,2-.18,3.46,1.53,5.6,1.12,1.82-.35,3.78-.36,5.62.82.83.53,2.27.09,3.44.09,4,0,8,.06,11.99-.01,9.25-.18,18.15-1.99,27.04-4.64,5.68-1.7,11.15-3.63,16.38-6.35,5.57-2.89,10.79-6.3,15.87-10.01,5.66-4.12,10.26-9.29,14.99-14.29,3.54-3.74,6.24-8.28,8.96-12.72,2.84-4.65,4.98-9.56,6.74-14.71,2.07-6.03,2.19-14.02.73-18.4-.56-1.66-.9-3.36-2.26-4.56-1.48-1.3-6.36-3.27-8.12-3.3-2.33-.04-4.76-.42-6.97.11-2.06.5-4.24,1.31-6.23,1.68-5,.94-9.3,3.39-13.9,5.16-5.47,2.1-11.01,4.01-16.45,6.14-5.9,2.31-11.88,4.34-17.92,6.19-3.11.95-6.2,2.24-9.39,2.59-3.49.39-6.59,2.34-10.15,2.12-1.81,2.04-4.84,0-6.67,2-3.12-.46-5.93,1.76-9.08,1-5.6,1.83-11.38.78-17.08.97-6.09.21-11.41-2.19-16.05-5.81-5-3.89-8.71-8.89-10.27-15.19-.64-2.59-1.35-5.24-1.4-7.88-.06-2.51-1.05-5.25.86-7.61.24-.3.04-.97.04-1.47-.05-6.45,2.42-12.2,4.99-17.93,1.07-2.39,1.76-4.98,3.06-7.22,4.09-7.03,8.01-14.15,13.08-20.6,4.17-5.31,8.4-10.54,12.67-15.77,5.46-6.69,11.92-12.33,17.81-18.55,4.12-4.35,8.26-8.73,12.76-12.68,4.12-3.62,7.98-7.53,12.5-10.73,2.35-1.67,4.45-3.76,6.61-5.69,4.45-3.96,9.71-6.79,14.05-10.84,2.21.59,1.06-2.07,2.4-2.46,1.17-.34,2.5-.76,3.31-1.59,2.4-2.45,5.96-2.6,8.59-4.81,2.38-2,5.98-2.5,8.66-4.24,3.69-2.39,7.75-4.1,11.77-5.36,3.5-1.1,7.15-2.18,10.93-2.78,4.25-.67,8.42-.79,12.62-.7,4.9.1,9.63,1.66,13.71,4.17,2.9,1.78,4.72,4.8,5.7,8.56,1.02,3.95.53,7.77.77,11.63.17,2.65-.02,5.33.05,7.99.06,2.43-.73,4.79-1.23,7.04-.93,4.19-.82,8.76-3.32,12.61-1.76-.06-2.3-1.75-3.58-2.62.91-2.62-1.29-4.94-.85-7.52.43-2.52-.88-4.7-1.21-7.07-.32-2.32-1.97-4.48-3.17-6.63-.36-.64-1.24-.91-1.91-1.31-2.9-1.73-6.01-2.36-9.26-3.09-3.25-.74-6.41-.82-9.62-.79-7.34.06-14.29,1.81-20.93,4.95-2.5,1.18-5.23,1.93-7.63,3.28-5.15,2.91-10.26,5.92-15.19,9.18-5.79,3.83-11.67,7.61-16.94,12.09-3.94,3.35-8.26,6.17-12.07,9.7-3.72,3.44-8.11,6.13-12.1,9.29-6.86,5.45-13.15,11.57-18.94,18.09-4.64,5.23-8.29,11.25-10.51,18.1-.68,2.11.51,4.65-1.57,6.33.34,2.19-.84,4.62,1,6.58-.34,5.17,2.48,9.26,4.69,13.55,1.85,3.58,3.99,4.67,7.95,5.94,2.74.88,5.46,1.22,8.11.8,6.65-1.06,13.3-2.21,19.82-3.98,1.24-1.97,3.98.09,5.2-1.93,1.83.27,3.48-.72,4.91-1.4,1.76-.83,3.65-.57,5.42-1.43,1.38-.67,3.39-.86,4.95-1.32,5.17-1.54,10.25-3.38,15.42-5,2.93-.91,5.94-1.64,8.84-2.76,2.73-1.06,5.76-1.45,8.59-2.23,3.57-.98,7.2-1.86,10.71-3.06,2.38-.82,4.84-1.2,7.22-1.88,3.2-.92,6.53-1.36,9.71-1.71,4.6-.51,9.36-.67,14.08.69,5.28,1.53,10.21,3.25,13.36,8.1,1.03.76.3,2.69,2,3,1.33,3.58,3.2,7.01,3,11-.06,3.89.34,7.78-1.77,11.46-.62,1.09-1.14,3.31.77,4.54Z" style="fill:#050505; stroke-width:0px;"/><path d="m941,697c-2.09,1.85-2.11,4.69-2.84,7.01-1.76,5.62-3.96,11.03-6.2,16.44-1.65,3.98-3.55,7.88-5.62,11.66-4.12,7.55-8.56,14.88-13.64,21.87-5.87,8.07-12.39,15.48-19.56,22.34-4.52,4.33-9.52,8.06-14.53,11.83-8.06,6.07-16.69,11.02-25.7,15.31-5.54,2.64-11.48,4.45-17.29,6.51-5.62,1.99-11.51,2.87-17.29,4.18-5.93,1.35-11.8.93-17.61.64-4.54-.23-9.08-1.99-13.28-3.97-5.03-2.36-9.62-5.45-13.62-9.43-2.12-2.11-4.8-3.55-8.05-3.43-3.61.13-6.69-1.25-9.64-3.28-2.62-1.8-5.48-3.26-7.62-5.71-4.61-5.26-8.73-10.78-9.5-18.06-1.68-2.17-.28-4.92-1.14-7.02-.87-2.1-.82-4.08-.83-6.14-.01-2.72-.12-5.39.86-8.12.84-2.33-.64-5.2,1.12-7.54-.71-2.2,1.1-4.02.96-6.08-.16-2.18.85-3.99,1.47-5.91,1.71-5.31,4.62-10.09,7.06-15.06,2.47-5.03,5.59-9.71,8.29-14.58,4.39-7.94,9.07-15.64,14.22-23.07,2.96-4.27,5.87-8.59,8.93-12.79,3.09-4.25,6.07-8.63,9.62-12.47,2.44-2.64,4.68-5.43,6.91-8.21,3.93-4.89,8.77-8.93,12.66-13.77,2.69-3.34,5.44-6.63,8.68-9.29,4.47-3.66,8.23-8.04,12.64-11.69,7.38-6.11,14.77-12.2,22.53-17.86,3.07-2.24,6.2-4.57,9.29-6.75,2.85-2.01,5.9-4,9.1-5.62,2.91-1.47,5.46-3.69,8.39-5.11,5.27-2.57,10.25-5.9,15.8-7.64,3.06-.96,6.52-2.16,10.15-.89.64.61,1.48,1.41,2.5,2.37-2.51,7.9-6.69,15.19-9,23.34-6.02-.28-11.38,1-16.53,3.04-3.43,1.36-6.89,2.51-10.12,4.62-3.35,2.19-6.93,4.13-10.39,6.23-1.92,1.16-2.96,3.49-5.39,3.84-9.11,7.69-17.75,15.95-25.62,24.85-8.4,9.49-15.83,19.85-22.7,30.53-2.85,4.43-5.12,9.22-7.84,13.73-3.69,6.1-6.45,12.67-9.5,19.07-2.97,6.24-5.02,12.91-7.2,19.51-1.56,4.74-2.18,9.7-3.91,14.37.72,3.95-1.33,7.63-1.06,11.59.27,3.98-.45,8.08.24,11.96.45,2.48.27,5.12,1.18,7.46,1.17,3.01,1.88,6.17,3.58,9.02,3.8,6.34,8.65,11.51,15.27,14.89,3.85,1.96,7.78,3.77,11.95,4.91,2.58.7,5.27,1.21,7.93,1.32,4.82.21,9.66.06,14.49.06,1.67,0,10.33-2.26,12.26-2.98,4.77-1.77,9.63-3.33,14-6.03,5.6-3.46,11.25-6.78,16.58-10.74,9.71-7.22,17.78-16.09,26.25-24.55,4.3-4.29,7.62-9.48,11.48-14.16,3.57-4.33,6.53-9.06,10.05-13.41,2.32-2.87,3.73-6.46,5.82-9.54,2.45-3.63,4.46-7.44,5.98-11.53.67-1.79,1.57-3.45,3.1-4.73.64-.53,1.26-.2,1.88-.33v3Zm-144.88-28.29c-.47-.71-.99-.86-1.44-.69-2.91,1.07-6.15,1.4-8.32,4.08-1.94,2.39-4.23,4.42-6.09,6.95-4.74,6.47-9.37,12.98-12.93,20.17-4.04,8.14-8.09,16.26-10.49,25.16-1.24,4.62-2.78,9.23-3.68,13.91-.56,2.93-1.45,5.88-1.29,9.06.16,3.24.77,6.38,1.09,9.58.28,2.85,1.51,6.43,3.53,9.08.98,0,1.97.03,2.97,0,2.69-.1,4.33-1.28,6.01-3.67,2.25-3.21,1.32-6.76,2.33-10.06,1.13-3.69,1.47-7.73,2.13-11.62,1.18-6.94,3.51-13.58,5.47-20.27,2.23-7.64,4.48-15.41,8.27-22.54.13-3.4,2.34-6.07,3.55-9.03,1.92-4.69,3.99-9.55,7.76-13.3.21-2.35-.55-4.86,1.15-6.8Z" style="fill:#050505; stroke-width:0px;"/><path d="m379,170v9.9h-2.08c.54-3.41-.38-6.63-.92-9.9h3Z" style="fill:#048ebe; stroke-width:0px;"/><path d="m394,578c0-.17,0-.33,0-.5.14-2.08,2.68-2.84,2.78-4.83.1-2.03,1.37-3.45,2.07-5.52v-4.13h-3.44c-.92-1.57,0-3.1-.75-5.01-.36-.53-1.56.35-3.26-.73.19.11,1.13-1.35-.29-1.28q-2.8,2.14-3.36,4.77c-.89-.01-1.16-.88-1.73-1.27-.54-1.56.7-2.7,1.28-4.2-2.46-.83-2.96,1.34-4.37,2.16v5.83c-2.8-1.3-5.25-2.44-7.88-3.66v-7.24c-2.15-.31-1.52,1.96-2.71,2.54-1.04-2.78-2.51-5.41-2.41-8.51-.47-.47-.94-.94-1.42-1.42h-7.02c-1.12,1.04-.02,2.53-.76,3.84-.28.56-1.3-.3-1.79,1.31v6.61c-.62.13-1.07.23-1.53.32-.14.28-.38.55-.39.83-.07,1.75-.29,3.4-.83,5.14-.44,1.42-1.92,2.76-1.19,4.53.72,1.75-.73,3.12-1.19,4.52-.53,1.58-.48,3.13-.87,4.63-.55,2.13-1.51,4.15-2.42,6.54-1.79-4.68,1.31-8.65.45-12.62,2.12-2.62,2.08-5.74,3.04-8.5,1.44-4.11,1.02-8.37.96-12.58-.05-4.29-1.99-5.63-4.96-6.51-3.13-.92-5.74-2.37-8.12-4.6-2.34-2.19-5.12-3.4-8.53-3.56-5.17-.24-10.26-1.4-15.12-3.23-3.16-1.19-6.13-2.89-9.27-4.16-2.4-.97-3.75-3.06-5.56-4.57-.59-2.34-1.86-4.5-1.4-6.98.4-2.19,1.24-4.26,1.04-6.59-.19-2.22.34-4.39.77-6.61.68-3.53.18-7.29.18-10.87-1.31-2.55-2.58-5.03-4.06-7.91-.01-.95,1.98-2.13.94-3.53-1.62-2.21-1.89-5.35-5.08-6.55-2.58-.97-4.94-2.45-7.61-3.34-2.91-.97-5.8-2.16-8.29-4.13-1.09-.86-2.63-.86-3.93-1.31-1.56-.55-3.5,0-5.03-1.14-6.41.65-11.8-2.9-17.68-4.41-1.92-.49-4.03-1.34-5.82-1.41-4.25-.17-7.84-2.14-11.74-3.18-.51.37-1.01.73-1.69,1.22-2.17-1.93-4.74-2.55-7.05-2.23-5.45-2.67-10.65-4.33-16.1-4-.75-.62-1.36-1.13-1.81-1.5-.21-1.56,1.18-1.67,1.46-2.94,3.06,2.2,6.42,2.28,9.6,3.01,4.09.94,7.68,3.34,11.88,3.92,2.97.41,5.81,1.54,8.86,1.54,6.29,0,6.25.12,12.78,2.91,1.51.65,3.02,2.21,4.68.87.91.91,1.5,1.5,2.2,2.2,2.96-.29,5.76.9,8.65,1.63,2.55.64,5.19.75,7.69-.02,4.12-1.26,8.24-2.62,12.21-4.28,1.47-.62,3.44.58,4.45-1.33,3.69-.48,6.18-3.39,9.49-4.66.13-.05.07-.61.13-1.27,2.06-.1,4.38.11,5.93-1.92-.61-2.37-3.75-3.07-4.14-5.84,4.92-1.29,9.29.71,13.61,1.92,2.17.61,3.79,1.11,5.85,0,.91-.49,2.2-.27,3.26-.36,1.54-1.58.84-4.1,2.82-5.78,3.01.11,5.89-1.19,8.63-2.62-.25-2.49-2.49-.65-3.18-2.36h7.88c0-2.58,1.84-4.42,1.21-6.61,5.51-5.96,13.17-9.08,18.4-15.72-1.74-1.14-2.4-2.94-3.38-4.51-.17-.81.4-1.2.87-1.66-.22-.8-1.66-1.3-.58-2.43,1.24-.74,1.7.43,2.58,1.14v3.25c1.85,1.07,3.42,2.29,4.22,4.27h4.56c1.78-1.21,1.93-3.1.93-4.67-1.59-2.49-1.83-5.05-1.46-7.86.87-.61,1.3.48,1.35.71.48,2.31,1.9,4.23,2.77,6.57,1.2.47,2.42,1.66,4.01,1.41,1.69-.62,1.49-2.51,2.8-3.53-.47-2.72.88-5.73-1.13-8.53,1.67-1.71,1.01-3.9,1.07-5.97.06-1.96.01-3.91.37-5.87.95,3.12.55,6.3.63,9.45.07,3.11.02,6.23.02,10,3.34-3.67,4.18-7.63,5.43-11.69,3.45-.88,4.82-4.86,8.45-6.3v-4c1.8-1.59,1.69-3.82,2.62-5.62.98,1.05.28,2.27.57,3.69.55.44,1.33,1.05,1.97,1.55-.43,2.92,1.48,5.12,1,7.53,1.37.6,1.87-.14,2.43-.73.18.25.56.59.5.72-.76,1.62-1.04,3.29-1,5.1.1,4.33.22,8.67-.03,12.99-.19,3.39,1.01,5.95,3.47,8.09.38.33.71.7,1.22,1.21,5.65-1.87,5.56-7.48,8.25-12.5,1.01-1.01,2.78-2.78,4.56-4.56.86.61.79,1.34.06,1.91-2.14,1.68-1.62,4.68-3.38,6.67-.63.71-1.24,1.77-2.09,2.88v3.95c-1.12,1.12-2.06,2.06-3.13,3.13,1.16,3.55,2.67,6.94,5.96,9.66,2.63-2.64,6.83-1.71,9.7-4.25h3.43c-.94,1.8-2.24,2.6-4.38,3.18-2.73.74-5.1,2.82-7.62,4.32.14,1.11-.32,2.28.51,3.67,3.5-5.13,9.63-6.38,14.05-10.12.48-.41,1.61-.06,2.44-.06-1.55,3.22-4.99,4.08-7.61,5.93-2.25,1.59-4.94,2.56-6.32,4.61-.38,2.78,1.68,3.3,2.42,4.43,1.9.04,3.43.32,4.34-1.29.5-.89,1.38-.68,2.18-.68-.61,2.02-2.54,2.62-4.18,3.8.67.97-.47,2.26.72,3.24,1.98-.26,3.81.08,5.71,2.17-1.63-.48-2.49-.21-2.15,1.81,0,.66,2.14-.7,1.8,1.65-.36.94-2.98,1.65-1.6,4.12.49.43,1.72.17,2.19,1.21,1.49,0,2.99-.1,4.47.02,2.71.23,4.82-.78,7.04-2.32,1.35-.93,1.97-2.21,3.01-3.23,1.3-1.27,2.58-2.58,3.86-3.85v-3.89c-1.84-2.85-4.34-4.17-6.84-5.17-.37-2.27,1.4-3.54,1.7-5.3-.73-1.04-1.91-1.8-2.92-1.2-2.13,1.27-4.96,1.1-6.63,3.24-.88,1.13-2.11.54-3.2.69.67-2.62,3.75-2.68,5.12-4.74-.58-2.02-.65-4.32-3.12-5.26-.21-2.24-.76-2.79-3-3-.18-.64.45-.82.69-1.23-1.4-2.67.44-6.09-.99-8.27-2.01-3.07,1.95-5.23,0-7.81,3.04-2.1,2.94-5.59,4.59-8.4,1.94-.74,3.78-2.27,6.43-.44,1.24.86,3.56.15,5.39.15h8.32q5.14,2.99,11.01,2c.24,1.86,1.96,2.52,3.2,2.9,3.19.97,5.36,3.36,7.79,5.24,2.24,1.73,3.96,4.36,1.56,7.44.3,2.97-1.32,5.43-2.17,8.09-2.6,1.77-6.06,1.46-8.85,3.69.28,2.52-.69,5.27,1.01,7.66-1.4,3.2-3.11,6.02-5.72,8.29-.97.84-1.49,2.21-2.19,3.32,1.94,1.35,3.57-.1,4.48-.88,4.46-3.79,10.02-4.95,15.29-6.57,2.29-.71,4.86-1.88,7.53-1.17,1.88-1.82,4.58-1.83,6.76-2.99,2.55-1.36,5.35-.97,8.07-1.01,1.81-.02,3.62,0,5.17,0,.84.48.55,1.03.66,1.72-1.84.77-4.38-.66-5.8,2.97.11,1.91-3.01,3-4.61,5.3-3.91-.23-7.44.91-10.43,3.24.07,2.46,3.16,3.29,2.72,6.48-.7.4-1.86,1.06-3.02,1.72.19.18.37.37.56.55h-2.95c-.52-.34-.58-.84-.49-1.32.24-1.37-.23-2.52-1.11-3.65,1.77-1.93.93-4.3,1.1-6.51-1.15-.45-.71-2.08-1.61-2.59-1.45,1.63-2.74,3.09-3.54,3.99h-9.94c-1.95,1.58-2.24,1.72-4.44,2.13-1.39,1.48-2.87,3.04-4.5,4.76,2.34,5.66,2.86,11.7.72,18.44,5.31-1.51,9.75-3.2,12.78-7.27.93.2,1.83-.33,2.54.56.02,1.79-1.46,2.04-2.69,2.76-1.1.64-1.87,1.86-2.72,2.76-2.74-.56-4.4,1.72-6.8,2.14-2.75.48-5.99,1.45-6.08,5.51-.02.77-1.5,1.2-1.77,2.37-.43,1.3,1.26,2.11,1.04,3.56,2.98.33,3.65,4.05,6.62,4.51,2.09,4.22,3.62,8.85,8.23,11.86,6.28-.7,11.32,1.76,14.18,7.83-.06,3.46-2.28,5.02-4.71,6.12-2.8,1.27-5.91,2.02-8.64,3.25-4.39,1.97-8.89,3.47-13.37,5.14-4.41,1.64-8.98,2.46-13.48,3.63-2.78.72-10.45,4.32-12.45,6.15-2.09,1.92-1.97,4.85-3.34,7.12-1.57,2.59-.91,5.63-1.06,8.32-.89.82-1.78.22-2.55.52-1.79,3.65-4.37,6.71-7.42,9.35v6.11c-.46.42-.95.87-1.65,1.51-2.74-.84-5.21,1.61-7.91.95-1.11,1.39.67,3.34-1.45,4.01-.95.13-1.96-.3-3.19.58-1.35-.03-.59,1.69-1.36,2.56-2.1,2.4-3.48,5.1-3.57,8.5-.03,1.43-.41,3.28-1.88,4.36h-1.54c-.29.65-.6,1.34-.9,2h-2.03c-1.35-2.11-.47-5.93-4.53-6Zm-70-61.87c-.75-2.65-2.6-4.46-4.58-6.1h-4.09c-.57,1.13-2.06,1.55-2.38,3.09.21,3.08,2.54,4.88,4.4,6.71h4.25c1.46-1.05,1.62-2.57-3.67-12.12,2.01.22,3.22,1.55,4.08,3.3.5,1.02.55,1,2.27.1-1.54-1.99-3.03-3.97-4.6-5.87-.21-.26-.84-.16-1.3-.24-.65.78-.27,1.63,5.62,11.12Zm150.95-14.69c-2.08-1.78-2.69-4.39-4.8-5.79-1.95-1.3-3.13-3.47-3.98-5.35-1.26-2.79-3.2-4.76-5.21-6.82-.21-.21-.53-.32-.8-.47-1.25-.14-2.7.5-3.71-1.11-2.46,2.51-4.82,5.05-7.33,7.46-2.13,2.04-3.16,4.61-4.15,7.28-1.24,3.35-1.82,6.91-3.08,10.22-.92,2.41-.78,4.63-.89,6.66l1.3,1.3c6.63,1.18,12.57-1.66,18.78-2.76,3.14-.56,5.44-2.92,8.63-3.39,1.58-.23,3-1.53,4.48-2.38.28-.16.48-.46.76-.74v-4.12Zm-162.65-21.61h4.34c.92-1.88,1.72-3.54,2.39-4.92-.36-2.02-2.86-1.23-3.13-3.01,2.09-2.56,3.43-5.31,3.05-8.38-1.72-2.1-4.02-2.27-5.91-2.83v-2.29c2.01-.32,2.83-1.81,3.44-3.19,1.15-.75,1.38.58,1.93.64.62-.5,1.13-.9,2.03-1.62-4.59-.26-7.85-4.04-12.3-3.08-.38,1.42.24,2.74-.6,3.89-.77-.77-1.36-1.36-2.03-2.03-.8,1.26-3.1.83-3.3,2.39-.29,2.31-2.22,2.1-3.45,2.52-2.79.95-5.72,1.62-8.65,2.04-4.2.61-8.07,2.24-12.93,3.49,3.89,1.06,7.01,1.9,9.79,3.56,3.62,2.15,7.39,3.27,11.76,3.15,3.24-.09,6.85.97,8.7,3.97,1.42,2.29,3.41,3.9,4.86,5.7Zm78.19-73.78c-2.55-.44-4.36,1.21-6.52,1.23.06.77-.12,1.3.39,1.61,1.8.12,4.03-.38,5.25.5,1.59,1.16,3.81-.43,4.86,1.59,3.16-.31,6.12,2.22,9.74.52-1.17-4.28-2.59-8.26-7.71-9.53-2.51.35-4.17,2.1-6.01,4.08Zm.96-9.9c-.61.87-2.41,1.34-2.45,3.32-.01.64-.17,1.35,1.17,1.61,2.15-2.4,5.62-3.1,9.16-5.42.85.85,1.82,1.82,2.61,2.61,0-1.14.33-2.73-.24-4.27-1.34.05-2.5.22-3.58-1.45-1.49,1.49-2.88,2.88-4.64,4.64-.42.16-.52-1.43-2.03-1.03Zm6.86-11.3c-1.29,1.4-2.57,2.84-3.91,4.23-.32.33-.45.48.63,1.23-.13-.32.1.26.35.85,1.6-1.29,1.64-3.46,3.67-3.62-.22-.91.34-1.8-.73-2.68Zm-22.3,170.92q.59.97,1.87,1.87c.03-.91.56-1.88-.38-2.62-.65-.04-1.33-.15-1.49.76Z" style="fill:#048ebe; stroke-width:0px;"/><path d="m635.93,663.04c.16-3.26-1.08-6.23-1.64-9.32-.62-3.4-1.19-6.77-2.27-10.07-1.91-5.85-6.05-13.48-9.41-17.62-1.68-2.07-3.19-4.32-4.76-6.47-2.04-2.81-4.55-5.51-8.41-6.23-6.81-1.17-12.02,2.09-16.93,6.58-6.07,5.54-10.9,12.15-16.11,18.39-2.5,2.99-5.01,5.67-8.08,8.11-2.83,2.25-5.62,2.85-8.81,2.52-.57-.53-1.06-.98-1.74-1.61,1.31-1.91,1.77-4.23,3.4-6.05,3.16-3.53,6.52-6.94,9.46-10.6,5.62-7,12.3-12.9,18.53-19.26,7.79-7.94,16.61-14.69,25.85-20.84,4.13-2.75,8.86-4.46,13.71-5.42,1.42-.28,2.55-1.15,4.06-1.19,4.32-.14,8.1,1.48,11.4,3.86,5.16,3.72,8.8,8.86,11.66,14.53,4.87,9.66,8.68,19.78,11.83,30.07,1.35,4.41,2.41,9.07,3.57,13.57,1.3,5.05,2.36,10.26,4.35,15.16.82,2.02.7,4.29,1.31,6.44,1.67,5.82,2.72,11.8,4.68,17.57,1.05,3.08,1.75,6.3,2.38,9.51.9,4.59,2.78,8.93,3.59,13.5,1.01,5.71,3.58,10.95,4.5,16.67.29,1.78,1.56,3.4,1.89,5.19,1.63,8.74,5.38,16.79,8.22,25.11,2.44,7.13,6.32,13.76,10.46,20.17,2.12,3.28,5.59,5.37,7.17,9.01,3.19,1.59,5.13,5.21,8.41,6.19,3.66,1.1,7.16,4.08,11.65,1.66,1.56-.84,4.12-.44,6.41.2-.81,2.26-2.41,3.57-3.9,4.68-5.28,3.93-10.59,7.85-16.42,10.99-1.65.89-3.06,2.33-4.79,2.91-4.37,1.47-10.22,1.64-15.16.11-3.04-.94-5.8-2.52-7.3-5.07-1.57-2.67-3.77-4.75-5.59-7.11-4.45-5.76-8.25-11.87-11.86-18.14-1.47-2.55-3.08-5.05-4.2-7.76-3.36-8.11-7.41-15.89-10.24-24.27-1.62-4.8-3.55-9.53-4.99-14.41-1.67-5.65-3.74-11.17-4.87-16.99-.68-3.48-1.91-6.86-2.95-10.26-.46-1.51-.57-1.52-3.43-2.07-2.11,2.1-3.82,4.22-4.81,7.41-.95,3.09-2.67,6.2-4.57,9.1-3.09,4.71-5.73,9.7-9.25,14.16-3.05,3.86-5.68,8.02-8.78,11.89-2.6,3.25-5.12,6.6-7.94,9.64-4.99,5.36-10.19,10.55-15.54,15.56-3.88,3.63-7.95,7.13-12.3,10.16-2.44,1.7-4.82,3.52-7.3,5.18-2.35,1.57-4.79,3.17-7.23,4.33-5.15,2.46-9.41,6.75-15.34,7.59-3.78,2.51-8.06,3.82-12.24,5.46-3.63,1.42-7.45,2.12-11,3.6-5.48,2.28-11.53,2.51-16.95,4.95-5.56-.15-11.02,1.91-16.57.95-6.2-1.06-11.89-3.24-15.75-8.69-1.49-2.11-3.38-3.6-6.55-3.22-2.58,2.94-5.81,5.22-10.06,6.24-2.44.58-4.39.47-6.83-.05-6.43-1.39-10.9-5.43-14.75-10.14-1.88-2.29-3.13-5.24-3.92-8.35-.74-2.9-1.04-5.74-.83-8.61.31-4.22,1.32-8.31,2.93-12.27,3.84-9.41,9.61-17.54,15.96-25.41,6.78-8.41,14.65-15.75,22.47-23.07,4.51-4.22,9.44-8.15,14.39-11.98,5.06-3.92,10.19-7.78,15.22-11.75,6.17-4.87,12.81-9.16,19.38-13.49,6.26-4.13,12.59-8.2,19.08-11.89,4.67-2.66,9.27-5.55,14.31-7.62,7.69-3.16,15.1-7.07,23.22-9.09,3.95-.98,7.78-2.75,11.95-2.48,1.73.11,2.77-1.55,4.61-1.14,1.58.36,3.32.08,4.98.07,5.94-.04,11.54,1.45,16.81,4.06,1.53.75,3.11,1.56,4.28,3.03,1.21,1.52,2.73,2.8,4.28,3.96.24.6-.39,1.49.9,1.97.12-.76.47-1.42-.9-1.97Zm-114.62,129.78c1.38-.4,3.4,1.07,5.59,1.12,3.21.08,6.42-.4,9.6-.7,3.88-.36,7.23-2.49,11.1-2.36,6.37-3.83,14.12-4.87,19.89-9.89,9.17-4.47,16.82-10.95,24.01-18.03,3.14-3.09,6.14-6.31,8.94-9.75,2.94-3.61,6.08-7.09,8.71-10.93,5.75-8.38,10.27-16.12,15.3-27.14,2.9-6.34,5.4-12.79,7.29-19.47.94-3.3,1.51-6.73,2.11-10.1.58-3.23.72-6.78-.02-9.94-.98-4.21-1.62-9.09-6.96-10.66-.43-.13-.82-.47-1.18-.77-3.86-3.24-8.69-4.32-13.36-5.07-5.24-.84-10.5.27-15.66,1.8-5.8,1.72-11.47,3.81-16.7,6.73-5.01,2.8-10.07,5.51-15.11,8.23-5.35,2.89-10.45,6.15-15.61,9.33-4.06,2.5-7.82,5.41-11.54,8.41-6.53,5.26-12.09,11.15-16.94,17.9-1.68,2.33-2.45,5.17-4.24,7.23-2.9,3.32-3.77,7.5-5.4,11.3-.99,2.33-1.82,4.91-2.3,7.57-.64,3.56-2.16,6.96-1.86,10.69-1.87,1.96-1,4.41-.91,6.58.1,2.34-1.48,4.2-1.18,6.6.35,2.79.18,5.66.05,8.49-.11,2.45.21,4.8,1.04,7.08,1.41,3.84,2.8,7.89,6.14,10.38,2.6,1.94,4.98,4.39,9.16,5.36Zm-51.91-11.93c5.65.12,8.2-.98,12.57-5.41.05-2.44,1.61-4.43,1.97-6.68,1.16-7.25,3.77-14.05,6.59-20.71,2.7-6.4,6.05-12.54,10.11-18.24,1.96-2.76,2.44-5.04,1.9-8.8-1.83-.5-2.48,1.34-3.57,2.05-7.79,5.07-15.22,10.5-20.89,18.16-4.4,5.94-8.3,12.06-10.76,19-1.36,3.84-2.77,7.69-2.45,12.01.15,2,1.73,3.46,1.18,5.29,1.23,1.23,2.29,2.29,3.35,3.35Z" style="fill:#050505; stroke-width:0px;"/><path d="m394,581c-.51,2.14,1.51,3.86,1,6-.96,2.49-2.75,4.46-4.15,6.69-1.18,1.88-2.44,3.76-2.99,6.37,1.53-.65,1.93-1.43,2.24-2.57.34-1.28,1.95-1.4,2.89-2.09q.41-2.08,2.01-4.28c0,1.51-.04,2.81.02,4.11.02.51.36.89.98.78v29c.14.58-.49.76-.62,1.15-.46,1.37-1.03,2.8.62,3.85,0,2.5-.16,5.01.04,7.49.27,3.45-1.45,6.6-1.11,10.09.32,3.3.73,6.83-.1,9.94-1.05,3.92-.82,7.76-.74,11.62.04,2.18-1.52,3.85-1.17,6.09.33,2.11.61,4.49-.03,6.45-1.95,6-.13,12.04-1.12,17.97,1.68.96,3.03,1.73,4.44,2.54,4.97-1.81,8.93-4.89,12.59-8.47,1.23-1.2,2.11-3.09,4.48-2.7,1.13.37.56,2.06,2.06,2.67-1.62,1.37-1.47,3.18-1.35,4.94.48,6.9-1.77,13.66-1.02,20.57-1.72,4.42-.28,9.14-1.13,13.55-.88,4.56-.17,9.18-1.05,13.56-.79,3.92-.09,7.87-.95,11.58-1.17,5.06-.07,10.18-1.03,15.07-.93,4.74-.06,9.52-1,14.07-.92,4.41-.6,8.74-.89,13.13-.79,3.57-4.04,4.59-6.77,5.71-2.68,1.1-5.56,1.83-8.35,2.75-2.8.92-5.72,1.36-8.56,2.22-2.42.74-5.25.15-7.77.15-.48-.48-.83-.83-1.51-1.51.8-3.76-.8-7.61-1.19-11.61-.26-2.68-.27-5.49-.93-8.06-.66-2.56-.15-5.32-1.03-7.55-1.21-3.05,0-6.22-1.17-9.01-1.23-2.92-.1-5.87-.7-8.71-1.94-9.15.04-18.46-1.09-27.55-1.6-12.87-.57-25.72-.81-38.57-.25-13.15-.06-26.31-.06-39.47v-68.04c1.6-3.59,3.48-6.55,6.5-8.75,4.73-1.03,9.3-3.57,14.5-3.18h3c-.3-.6.47.67.48,0,.12.11.35.27.33.32-.47,1.19-1.55,2.31-.23,3.77.31-.37.57-.77.93-1.07.46-.38.69-1.14,1.5-1.02Zm-17.6,23.93c.21-.18.59-.47.57-.51-.27-.44.6-1.53-.42-1.33-.81.16-.77,1.15.45-.09.48.09.78-.13.89-.59.02-.08-.22-.31-.29-.29-.46.1-.68.41-1.19,2.82Zm6.67,128.62c1.06,1.36,2.22,2,3.68,1.16v-5.39c-1.78-.92-2.73-.03-3.68,1.12v3.11Z" style="fill:#050505; stroke-width:0px;"/><path d="m549.52,318c-1.44-1.54-3.71-1.63-5.23-3.14-2.54-2.51-4.66-5.2-5.3-8.82-.56-3.22-2.22-6.35-.09-9.72.6-.95.09-2.59.09-3.24,1.18-2.83,2.64-4.46,4.92-5.65,2.64-1.37,4.78-3.68,7.39-5.13,2.43-1.35,5.08-2.31,8.03-2.37,2.02-.04,3.86.36,5.41,1.43.95.66,1.81.55,2.74.64,3.56,3.44,7.06,6.91,7.9,12.04.6-.08,1.17-.05,1.2-.17.9-3.61,3.15-6.75,3.55-10.49,2.63-2.7,5.19-5.46,8.83-7.35h17.07c2.68.79,1.25,3.51,2.96,4.51-.46,2.79.76,5.38.96,8.08.19,2.65.25,5.35,0,7.99-.61,6.45-7.03,12.22-13.54,12.39-.67.02-1.33,0-2,0-3.23.02-6.49-.36-9.3,1.12-1.84-.79-2.5-1.95-2.08-3.4-1.28-1.36-2.42-2.56-3.49-3.69h-3.07c-.38.38-.73.73-1.09,1.09-.83,5.04-3.54,8.7-8.06,11.07-1.65.86-3.26,1.81-5.08,2.82h-12.73Z" style="fill:#048ebe; stroke-width:0px;"/><path d="m569.1,214.37c-2.9-1.72-5.43-3.56-6.87-6.61-1.82-3.86-1.59-7.81-.69-11.76,1.13-4.98,4.11-8.33,8.98-10.19.86-.33,2.26-.48,2.8-1.6,6.89-1.47,11.32,2.42,15.43,7.14.22,1.79.95,3.49,2.26,5.39.1,2.64-.45,5.76,1.12,8.63,2,2.83,5.12,3.84,8.94,5.21.24.25,1.05,1.09,1.92,1.99v4.91c-.98,1.62-2.85,1.77-4.3,2.66-1.04.53-.93,1.81-1.83,2.61-2.35,2.11-4.45,4.5-6.76,6.65-3.47,3.22-10.72,5.41-15.28,1.96-.35-.27-.87-.31-1.07-.38-4.27-4.82-5.34-10.48-4.64-16.58Z" style="fill:#048ebe; stroke-width:0px;"/><path d="m403,582c1.47-1.08,1.85-2.93,1.88-4.36.08-3.41,1.47-6.1,3.57-8.5.76-.87,0-2.59,1.36-2.56,1.23-.88,2.25-.45,3.19-.58,0,2.5-.05,4.99,0,7.49.13,5.72-1.73,11.31-1.01,17.06-1.87,4.24-.92,8.71-.9,13.07.01,2.49-1.52,4.55-1.17,7.09.31,2.29.68,4.87-.07,6.93-1.36,3.73-.25,7.49-.94,11.11-1.12,5.84-.24,11.81-1.14,17.54-.69,4.41-.89,8.76-.67,13.09.15,3.01,1.14,5.99.87,9.08-.04.46.26,1.02-.76,1.56-1.85-.13-3.05-2-3.97-3.44-1.2-1.89-2.16-4.18-2.23-6.53-.13-4.05-1.48-7.93-1.11-12.07.35-3.96.08-7.98.08-11.98,1.05-.24,1.52,2.21,2.88.62.02-.89.59-1.88-.42-2.62h-2.46v-4c2.09-2.12,2.93-4.46,1.27-7.23-.54-.9-.13-1.86-.27-2.77.16-2.27-.6-4.71.4-6.8,1.08-2.26.39-4.5.56-6.73.17-2.31-.48-4.79.14-6.94,1.69-5.83.48-11.7.9-17.54Z" style="fill:#050505; stroke-width:0px;"/><path d="m851.17,861.1h4.42c.96.83-.18,2.09,1.15,3.06,2.88-2.5,6.33-3.53,10.37-3.24,4.04.29,6.92,2.18,9.36,5.11,5.11-5.07,9.57-5.96,16.58-4.12,2.91.76,4.45,2.82,5.83,4.84,1.24,1.82,2.14,4.14,2.14,6.58-.03,7.47,0,14.93,0,22.18-2,2.16-3.83,2.05-5.86.21v-24.13c-2.07-1.46-2.36-4.12-4.83-5.47h-5.89c-2.06.59-3.54,2.58-5.45,4.39v25.08c-2.76,1.85-2.92,1.86-5.81.15v-24.16c-2.19-1.32-2.23-4.25-5.02-5.08-2.33-.69-4.51-.12-6.69-.55-.7,2.3-3.28,2.5-4.45,5.21v5.54c0,3.33-.04,6.66.01,9.99.05,3.07-1.87,5.86-.97,8.75-1.65,1.91-3.13,2.3-4.87.22v-34.54Z" style="fill:#048ebe; stroke-width:0px;"/><path d="m496.3,870.21c-2.2,6.14-1.03,12.08-1.28,17.94-.12,2.81-.02,5.63-.02,8.6-1.74.98-2.88-1.7-4.54-.67-.85-1.42-.41-2.93-.43-4.36-.07-3.66.04-7.32-.04-10.98-.09-3.71.76-7.51-1.25-11.05-.79-1.73-2.48-2.66-4.66-3.64h-5.52c-1.05.54-1.47,2.19-3.09,2-.98,1.41-1.14,3.26-2.46,4.48v22.96q-2.39,1.89-4.9.15v-34.26c1.07-.74,2.26-.21,3.35-.37,1.2.67,1.52,1.96,2.2,3.09,7.05-4.75,13.65-4.4,19.93,1.87,4.01-5.13,9.69-5.44,15.82-4.81,1.05.79,2.5,1.36,3.77,2.39,3.42,2.77,4.39,6.64,4.73,10.54.42,4.79.06,9.65.14,14.47.02.99-.61,1.43-1.04,2.07,1.12,2.89,1.12,3-.2,5.1-.13.1-.25.28-.38.28-1.32.02-2.65.01-3.94.01-.18-.33-.45-.6-.45-.87-.03-4.49.02-8.99-.03-13.48-.04-4.04.55-8.15-1.46-12.66-.75-.93-2.14-2.25-4-2.98h-5.94c-1.55,1.52-3.09,3.03-4.28,4.2Z" style="fill:#048ebe; stroke-width:0px;"/><path d="m278.4,887.13c3.08-3.26,2.9-7.58,4-11.27,1.1-3.69,3.27-7.28,2.57-11.38,1.5-.58.45-2.82,2.17-3.32h4.6c.24.16.35.65.26,1.14-.4,2.16-.33,4.61-1.38,6.4-1.85,3.17-2.32,6.72-3.47,10.06-.65,1.89-1.04,3.81-1.89,5.73-.78,1.75-.64,3.9-1.86,5.74-.91,1.37-.24,3.43-1.4,4.9-.5.63-.96,1.28-1.4,1.88h-3.07c-1.24-.68-1.7-1.97-2.09-3.13-.75-2.19-1.44-4.41-2.2-6.57-.71-2.01-1.9-4.11-2.06-6.09-.32-3.78-3.01-6.52-3.25-11.22-1.9,5.39-3.47,9.64-4.91,13.94-1.42,4.24-2.7,8.53-4.08,12.91h-4.6c-.22-.22-.57-.57-.94-.94-1.08-5.46-3.25-10.61-4.91-15.92-1.3-4.14-2.48-8.31-3.51-12.53-.29-1.18-.73-2.44-1.48-3.35-.8-.97-.16-1.86-.76-2.92h4.98c2.18,1.98,2.37,5.08,3.31,7.87,1.98,5.87,2.71,12.1,5.5,18.21.91-2.69,2.51-4.75,2.48-7.45,0-.17-.06-.37,0-.49,2.97-5.31,3.78-11.4,6.14-16.93.18-.43.68-.72,1.08-1.12,1.03-.55,2.18-.18,3.3-.22.35.35.71.71,1.06,1.06,2.11,8.4,5.73,16.33,7.8,25.03Z" style="fill:#048ebe; stroke-width:0px;"/><path d="m157.13,896.87h-3.78c-1.45-1.47-2.05-3.27-2.46-5.42-.66-3.46-2-6.8-3.12-10.17-1.9-5.7-3.37-11.55-5.72-17.11-.35-.82-.05-1.92-.05-3.03h5.03c3.25,8.26,4.67,17.38,8.33,26.81,1.61-5.35,2.66-9.81,4.32-14.03,1.64-4.16,2.79-8.49,4.05-12.39,1.53-.83,2.68-.45,4.25-.52,4.03,8.54,6.53,17.79,9.57,26.8,2.01-2.83,1.71-6.61,3.33-9.78.72-1.4.27-3.33.96-5.08.59-1.5,1.01-3.29,1.35-4.98.31-1.5.51-3.38,1.75-4.75.32-.35.05-1.24.05-2.06h5.84c.11,1.36.13,2.62-.62,4.31-1.43,3.21-3.01,6.47-3.28,10.14-.1,1.36-.77,2.69-1.98,3.97.88,2.83-1.47,5.15-1.85,7.87-.39,2.85-2.2,5.22-2.19,8.13-1.46.49-2.64,1.86-4.6,1.35-1.25-2.33-3.02-4.42-3.46-7.45-.36-2.52-1.48-5.06-2.49-7.42-1.27-2.99-1.38-6.39-3.35-9.11-.34-.46.28-1.32-.64-2.02-3.39,8.59-5.72,17.49-9.26,25.92Z" style="fill:#048ebe; stroke-width:0px;"/><path d="m231.14,895.9h-5.14c-3.28-7.79-5.57-15.96-8.31-24.04-2.41,1.97-2.89,4.75-3.59,7.22-1.56,5.51-4.05,10.72-5.14,16.37-.1.52-.93.9-1.53,1.44h-3.02c-2.97-2.73-3.39-6.5-4.29-9.86-1.92-7.18-4.29-14.2-6.81-21.16-.55-1.52.16-2.94-.47-4.4,1.71-.87,3.32-.2,5.28-.62,2.52,8.86,4.97,17.48,7.44,26.14h1.12c2.46-8.66,5.12-17.35,8.21-25.87h3.78c.39.68.98,1.26,1.44,1.87,1.19,1.55.57,3.41,1.33,4.97.74,1.53,1.55,2.95,1.7,4.83.17,2.09,1.4,4.07,2.1,6.1,1.04,3.02,1.62,6.29,3.23,9.28,2.34-8.37,4.64-16.58,7.04-25.15.4-.4,1.1-1.11,1.86-1.86,1.57-.26,3.18-.51,4.37,1.08-2.89,11.46-7.14,22.49-10.59,33.68Z" style="fill:#048ebe; stroke-width:0px;"/><path d="m614.29,378.79c.93-3.62,2.18-6.72,5.56-8.75,1.64.77,3.38-1.63,5.06-.91,1.9.82,3.72.78,5.21.87,2.39,1.22,4.45,2.28,6.63,3.39,1.31,2.24,2.73,4.64,4.25,7.24,0,1.27-.11,2.77.02,4.24.31,3.4-1.27,6.08-3.09,8.71-1.98,2.86-5.25,3.5-8.18,4.29-2.6.7-5.36-.77-7.43-2.24-2.39-1.7-5.48-3.31-5.32-7.1-2.35-2.3-2.09-5.25-1.98-8.15.03-.75-.26-1.25-.73-1.59Z" style="fill:#048ebe; stroke-width:0px;"/><path d="m554.96,894.87c-.63,1.03-1.06,1.72-1.23,2-2.13.48-3.12-.96-4.52-1.16-.2-.58-.4-1.16-.58-1.7-5.38,3.64-11.06,3.68-17.48,1.48-.97-1.04-2.43-2.62-4.15-4.46,0-.33.35-1.5-.06-1.93-2.25-2.36-.1-4.54.27-6.66.28-1.6,1.47-3.33,3.08-4.15,2.2-1.12,4.5-2.21,7.04-2.26,3.8-.09,7.6-.02,11.53-.02v-4.62c-1.19-1.06-1.33-2.72-2.07-4.08-3.61-2.29-7.59-.91-11.16-1.32-.8.46-.59,1.01-.66,1.52-1.33.28-2.25,1.68-4.23,1.46-1.09-.36-1.87-1.61-2.98-2.89,1.43-2.29,3.8-3.03,6.03-4.14,2.35-1.17,4.72-.77,7.11-.95,2.62-.2,5.12.23,7.78,1.29,2.68,2.14,4.96,4.91,5.9,8.71.19.78.39,1.54.4,2.31.03,5.5-.05,10.99.07,16.49.02,1.16-1.12,2.27-.69,2.9.65.95.57,1.82.6,2.19Zm-21.54-3.92c3.59,1.9,7.4.69,10.5,1.02,2.66-.89,4.18-2.37,4.92-4.7v-7.18c-5.55-.21-10.98-.75-15.3,2.12-2.23,3.07-1.81,5.75-.12,8.74Z" style="fill:#048ebe; stroke-width:0px;"/><path d="m385.79,876c.62-4.07.16-7.45-3.58-10-4.3.34-9.43-1.43-13.04,3.29-1.24-1.25-2.24-2.24-2.98-2.99,1.3-1.3,2.57-2.56,4.55-4.53,4.36-1.47,9.9-1.08,15.35.43,1.46,1.47,2.97,2.98,4.9,4.93,2.14,8.84.44,18.58,1.11,28.06-1.18,2.13-2.93,2.03-4.74,1.67-1.05-.64-1.21-1.83-1.77-2.77-2.88,2.81-6.48,2.93-10.21,2.97-3.92.05-6.86-1.94-10.09-4.09-.1-2.08-1.4-3.94-1.36-6.28.04-2.29,1.83-4.13,1.04-6.26,3.98-3.34,8.26-4.6,13.04-4.44,2.49.09,4.99.02,7.79.02Zm-.3,3.99c-5.27.12-10.7-.82-14.76,2.13-2.05,2.18-1.74,4.31-1.72,6.25,1.21,1.27,2.36,2.46,3.46,3.61h8.45c2.36-.87,3.91-1.97,5.07-3.57-.1-2.38,1.9-4.51.81-7.12-.25-.25-.6-.6-1.31-1.31Z" style="fill:#048ebe; stroke-width:0px;"/><path d="m740.47,891.87c2.11-1.41,4.74-1.89,6.5-4.57,1.24,1.92,2.23,3.45,3.26,5.05-4.05,3.84-9.91,5.26-16.59,4.55-2.2-1.45-4.94-2.32-6.93-4.58-2.32-2.63-3.41-5.65-3.67-8.99-.21-2.65-.1-5.33-.03-7.99.15-5.96,3.21-10.19,8.05-13.33,1.07-.7,2.17-1.16,3.58-1.06,2.31.18,4.64.05,6.47.05,3.33,1.7,5.87,3.64,7.9,6.26,2.14,2.76,1.36,6.38,2.78,9.43-.16.18-.49.54-.76.84-.43,1.05.7,1.37.82,2.09-.79,1.37-2.04,1.42-3.44,1.41-6.66-.05-13.32-.02-20.27-.02-.52,3.42,1.6,5.88,3.16,8.66,2.73,1.54,5.7,3.07,9.16,2.2Zm-12.23-15.05h17.43c1.34-3.48-.99-5.89-1.9-8.42-2.14-1.64-4.44-2.54-6.82-3.38-2.25,1.22-5.5,1.03-6.86,3.57-1.3,2.42-2.95,4.98-1.85,8.23Z" style="fill:#048ebe; stroke-width:0px;"/><path d="m636.38,889.69c1.37.7,2.75,1.4,4.38,2.24,4.1.65,8.06-.08,10.85-4.16,1.98.7,2.79,2.5,4.24,3.51-4.41,5.87-13.81,7.38-20.04,4.04-3.66-1.96-5.96-4.63-7.01-9.01-.94-3.94-.97-7.8-.64-11.58.29-3.29,1.67-6.6,3.93-9.28.96-1.14,2.1-2.13,3.32-3.35,1.82.47,3.22-1.47,5.31-1.14,1.78.28,3.65.06,4.96.06,9.49,3.08,10.98,10.47,11.4,18.41-.64.64-1.11,1.11-1.74,1.74h-22.06c-1.15,1.94.38,3.26,1.03,4.49.65,1.25.68,2.75,2.06,4.05Zm5.56-24.87c-2.27,1.8-5.74,1.12-6.9,4.03-1.01,2.54-2.65,5.02-1.83,8.05h17.48c.29-3.69.22-3.67-.64-6.57-.2-.66-.47-1.13-.85-1.66-1.73-2.41-4.83-2.13-7.26-3.85Z" style="fill:#048ebe; stroke-width:0px;"/><path d="m609.49,892c1.13-1.2,2.61-1.69,4.14-2.14.72-1.72,1.93-3.34,1.31-5.2-.82-.7-1.55-1.32-3.07-2.62-3.97-1.38-9.37-.7-14.51-2.36-3.87-2.49-5-6.35-4.18-11.13.59-1.12,1.31-2.49,2.36-4.47,7.11-4.7,14.77-4.3,22.39-.02.3,1.85-1.33,2.51-1.32,3.93-1,0-2.34.42-2.91-.07-3.42-2.89-7.43-1.65-11.16-1.96-1.14.99-1.83,2.47-3.54,2.17v5.32c.7,1.5,2.55,1.35,3.49,2.54,2.81,0,5.7-.39,8.45.1,3.56.63,6.93,1.94,8.55,5.79.34.8.49,1.5.5,2.29.03,1.67,0,3.33,0,5-2.62,5.84-7.44,7.87-13.48,7.83-4.6-.03-8.47-1.1-12.29-2.93-1.39-.67-2.17-1.69-3.3-2.69,2.26-.22,2.84-1.96,3.91-3.68,1.94,1.91,4.42,2.89,6.94,4.3h7.7Z" style="fill:#048ebe; stroke-width:0px;"/><path d="m819.4,896.04c-.85-.9-1.65-2.01-2.7-2.79-3.57-2.66-4.04-6.71-4.61-10.57-.41-2.77.09-5.66-.14-8.47-.16-2.02,2.15-3.47,1.06-5.09,3.94-7.02,9.85-9.14,17.58-7.84,1.04.65,2.53,1.46,3.9,2.6,2.24,1.86,3.76,4.25,4.59,6.55,1.62,4.5,1.02,9.09.84,13.59-.39,9.69-9.94,15.48-17.4,12.08-.82-.37-1.96-.05-3.12-.05Zm-1.15-8.32q4.26,4.3,9.95,4.25c2.52-1.13,4.35-2.65,5.63-4.39,1.88-6.73,1.98-13.12-1.11-19.41-1.64.13-2.21-1.58-2.91-1.92-5.33-.93-9.21.36-11.41,3.99-1.71,6.17-2.09,11.7-.14,17.49Z" style="fill:#048ebe; stroke-width:0px;"/><path d="m336.91,863.41c.16,1.78.57,3.66-1.64,4.59-1.91.19-3.35-.73-4.81-1.96h-9.03c-1,1.1-2.11,2.32-3.4,3.74v2.78c1.11,1.04,2.32,2.16,3.72,3.46,4.9-.52,9.81,1.03,14.83,2.1,4.56,8.71,4.47,7.08.43,15.13-4.87,3.49-10.13,4.69-15.32,3.57-3.79-.82-8.14-1.54-10.59-5.42.74-.74,1.56-1.56,2.38-2.38,2.62-.66,4.31,1.61,6.62,2.17,3.39.81,6.46,1.31,9.71-.15.53-.24,1.26-.03,1.75-.03q3.01-4.29,1.11-8.99c-3.76.33-7.39-1.31-11.34-1.18-1.54.05-3.79-.4-5.04-2.06-.55-.73-1.34-.78-1.93-.86-2.1-3.32-1.85-6.96-1.19-10.12.89-4.24,5.07-5.67,8.79-6.7,3.6-1,10.62.42,14.94,2.32Z" style="fill:#048ebe; stroke-width:0px;"/><path d="m324,714c-1.91-1.22-1.39-3.44-.77-4.54,2.11-3.69,1.7-7.57,1.77-11.46.5,0,1,0,1.5,0,1.55-2.27-.33-4.98,1.26-7.51,1.23-1.97,1.61-4.73,2.02-7.08.41-2.32,1-4.72,1.53-6.95.54-2.27.46-5.1,2.61-6.86.05-4.17.72-8.14,2.74-11.89.64-1.18.34-2.86.44-4.07.7-1.27,1.83-2.38,1.8-3.45-.14-4.71,2.98-8.89,2.02-13.6,1.48-1.51,2.35-3.22,2.03-5.24-.3-1.88.89-3.34,1.18-5.07.98-5.84,2.32-11.67,4.06-17.3,1.17-3.77.31-6.05-2.12-8.43-.66-3.28.83-6.28,1.3-9.41.06-.4.67-.71,1.03-1.07,1.52,1.38-.26,3.46,1.03,4.89,3.86-1.94,5.5-5.03,5.61-10.54,1.16-.79,1.7-2.48,3.59-2.54.43,1.51.46,2.75-.16,4.23-.82,2-1.93,4.03-1.51,6.39.08.44-.08.88-.29,1.37-2.03,4.61-3.88,9.28-3.7,14.47.02.46.02,1.11-.25,1.37-2.5,2.33-.94,6.29-3.51,8.56-.09,3.18-1.4,6.08-2.1,9.1-.53,2.31-1.76,4.41-2.01,6.65-.25,2.28-.48,4.36-1.85,6.28-.4.57-.38,1.6-.24,2.37.41,2.3-.95,3.93-1.99,6.28.6,2.25-.2,5.03-1.2,7.42-1.05,2.49-.94,5.2-2.23,7.58-1.25,2.31-.29,5.42-2.61,7.53-.02,2.29-.18,4.5-1.51,6.78-1.09,1.87-1.07,4.5-1.96,6.66-.87,2.14-.48,4.76-2.53,6.56-.03,1.98-.07,3.98-.93,6-1.92,4.47-2.58,9.23-1.92,14.06-1.55.32-.53,2.44-2.15,2.46Z" style="fill:#048ebe; stroke-width:0px;"/><path d="m700.24,279c1.98,1.31,3.64,2.25,4.9,4.07,1.3,1.88-.12,4.32,1.66,5.61-.66,4.97-2.36,9.25-8.5,11.32-.49,0-2.18-.2-3.79.04-2.76.42-4.74-1.42-7.08-2.16-.56-.18-1.2-.82-1.38-1.38-.77-2.51-1.89-5.06-1.91-7.6-.02-2.18.81-4.73,2.12-6.47,1.57-2.07,4.18-3.25,6.94-3.41,2.31-.13,4.64-.03,7.03-.03Z" style="fill:#048ebe; stroke-width:0px;"/><path d="m779,884.14c0-2.43-.05-5.92.01-9.42.1-5.6,5.46-12.68,10.73-13.64,2.74-.5,5.64-.09,8.48-.09,2.22,1.66,5.42,1.96,6.77,4.84.33,2.24-1.52,3.01-2.94,4.52-1.11-2.09-3.21-2.81-4.59-4.35h-5.97c-1.14,1.22-2.66,1.63-4.03,2.09-5.09,7.07-4.09,14.2-.01,21.77.86.74,2.81.72,3.88,1.94,4.35.9,7.7-.64,10.46-4.25,1.53,1.47,3.52,2.18,3.16,4.96-1.55,2-4.33,2.66-6.29,4.31-9.4,1.25-16.31-1.76-19.67-12.69Z" style="fill:#048ebe; stroke-width:0px;"/><path d="m424.28,862c1.83,1.83,3.22,3.22,4.62,4.61-.97,1.25-2.57,1.61-3.91,2.4-1.61-.73-3.21-1.42-4.38-2.94h-5.97c-7.63,3.47-7.96,10.3-7.62,17.15,1.83,3.56,3.31,7.19,8.35,8.69h3.97c1.24-1.02,3.22-1.21,4.04-2.91h3.13c.79.81,1.6,1.64,2.47,2.53-3.74,3.75-8.09,6.01-13.59,5.47-4.13-.41-7.4-2.48-10.25-5.35.18-1.74-2.22-2.16-2.07-3.59.22-2.19-1.38-3.89-1.13-6.08.26-2.3.04-4.65.06-6.97.07-6.02,4.04-11.12,9.81-13.04,3.77-1.25,7.43-1.66,11.16,0,.42.19.99.03,1.31.03Z" style="fill:#048ebe; stroke-width:0px;"/><path d="m502,375.47c.07,1.5.12,2.78.91,4.21,2.07,3.76,1.1,7.07-2.7,9.24-1.81,1.03-3.07,2.18-3.45,4.14-2.8-.12-2.62-2.18-3.03-3.9-1.39-.04-2.87-.74-4.17.82-1.19-1.21-2.8-2.02-2.62-4.18.04-.46-.64-1.22-1.16-1.45-2-.91-1.37-3.17-2.46-4.5-1.44-1.77.69-2.91.76-4.45.06-1.35.74-2.69,1.77-3.77,2.7-1.19,5.09-3.36,9.15-2.31,2.4.96,4.33,3.67,7,6.18Z" style="fill:#048ebe; stroke-width:0px;"/><path d="m615.13,418.56c2.16-4.67,2.6-5.28,6.39-8.56,1.72,0,3.54-.02,5.36,0,6.51.07,10.58,6.06,8.38,12.27-.26.73-.27,1.56-.41,2.45-2.11,1.5-3.25,4.55-6.55,4.49-2.65,2.35-5.16-.29-7.67-.34-3.76-2.04-4.49-5.91-5.5-10.31Z" style="fill:#048ebe; stroke-width:0px;"/><path d="m684,846.09h6v43.2c.68,1.81,2.86,1.36,3.44,2.6,1.48.43,1.76-1.4,3.3-.74.56,1.65.11,3.57.29,5.41-3.08,1.7-5.67-1.2-8.44-.56-1.24-1.2-2.43-2.36-3.22-3.13-2.07-4.82-1.31-9.42-1.35-13.95-.08-10.79-.03-21.59-.03-32.84Z" style="fill:#048ebe; stroke-width:0px;"/><path d="m709.28,895.83c-.49-.5-1.17-1.23-1.89-1.92-1.7-1.64-2.44-3.57-2.43-5.99.07-13.79.03-27.58.03-41.61,1.5-.6,3.1-.23,4.3-.25,2.09,1,1.7,2.6,1.7,4.05,0,9.8,0,19.61,0,29.41v9.97c1.8,2.07,4.18,2.74,6.9,2.52v3.82h-8.62Z" style="fill:#048ebe; stroke-width:0px;"/><path d="m572,895.61c-2.21,1.9-4.04,2.06-5.9,0v-33.2c.37-.37.73-.73,1.24-1.24h4.38c.79.57-.09,1.76-.02,1.87.76,1.01.97.94,1.24.54,1.29-1.93,3.59-2.13,5.44-2.44,2.81-.47,5.75-.3,8.57.81,1.72.68,2.17,1.75,2.04,3.52-.8.84-1.69,1.77-2.26,2.37-2.31.66-3.11-.8-4.2-1.81h-5.29c-.24.3-.6.87-1.09,1.3-.95.83-2.91.82-3,2.14-.12,1.95-1.27,3.53-1.22,5.55.19,6.82.07,13.64.07,20.59Z" style="fill:#048ebe; stroke-width:0px;"/><path d="m648.85,323.25c2.25,6.89,1.94,11.39-4.14,14.62-4.2.9-7.02-1.17-9.32-4.05-2.37-2.97-1.33-6.23-.07-9.42,1.37-.14,2.14-1.5,3.27-2.44,3.29.34,6.78-.76,10.26,1.29Z" style="fill:#048ebe; stroke-width:0px;"/><path d="m589.31,497.2c1.51-1.39,2.76-3.4,5.16-3.97,4.49-.89,7.55,1.1,9.47,5.52.44,3.36-.06,6.73-3.53,9.19h-6.47c-4.61-2.07-5.77-5.67-4.64-10.74Z" style="fill:#048ebe; stroke-width:0px;"/><path d="m667.13,862.49c1.34-2.09,3.05-1.27,4.87-1.59,0,8.73,0,17.15,0,25.56,0,1.58-.36,3.26,1.13,4.41-1.3,1.47-1.21,3.08-1.09,4.67-1.63.89-3.23.19-4.92.57v-33.62Z" style="fill:#048ebe; stroke-width:0px;"/><path d="m349.17,862.28q1.9-1.17,4.67-1.09v34.56c-1.33.56-2.93.17-4.67.2v-33.67Z" style="fill:#048ebe; stroke-width:0px;"/><path d="m488.17,262.45c1.35-2.12,1.96-5.01,4.4-6.47,3.07-1.84,5.24-4.2,6.74-7.58.91-2.03,3.07-3.68,5.51-4.4,1.03-.15,1.28.88,2.06,1.26v6.35c-.41.74-1.52.04-1.95,1.08-.4.96-3.35,3.21-4.1,3.27-4.87.39-5.62,4.84-7.84,7.84.33,2.21-1.46,3.04-2.66,4.22-.72-.03-1.37-.06-2.17-.1v-5.48Z" style="fill:#048ebe; stroke-width:0px;"/><path d="m655.07,303.46c-.25,2.26-2.63,2.82-3.31,4.54-1.62-.19-2.84.06-3.63,1.36-.72,1.18-2.19.24-2.98.8-.15.71-.25,1.17-.35,1.6-4.44.47-7.33,4.07-11.71,5.1,1.29,2.23.8,4.41.92,6.67-.8.72-1.67,1.48-2.77,2.46-1.67.51-3.31-.63-5.15-1.33v-4.82c1.15-1.08,2.33-2.2,4.07-3.85-.24,0,.67.27.99-.04,1.94-1.96,5.12-1.94,6.79-4.01,1.6-1.99,4.1-2.22,5.87-3.86,1.44-1.33,3.42-2.14,5.03-3.4,1.83-1.43,3.17-1.61,6.22-1.22Z" style="fill:#048ebe; stroke-width:0px;"/><path d="m586.97,516.64v4.68c-.76,1.27-1.4,2.35-2.1,3.52h-5.51c-.42-.52-1.02-1.04-1.95-.92-.14-.28-.45-.61-.38-.82.47-1.45-1.08-2.24-1.08-3.59,0-1.35.79-2.45,1.2-3.52,1.03-2.69,3.68-3.16,6.19-2.97,1.27,1.27,2.44,2.44,3.63,3.63Z" style="fill:#048ebe; stroke-width:0px;"/><path d="m540.01,416.16c-1.66,1.09-4.02,1.39-6.36-.17-2.6-1.74-2.87-4.4-2.58-7.61.7-.62,1.67-1.46,2.67-2.35h5.71c1.55.71,1.36,2.56,2.52,3.46.03,2.06.35,4.17-1.97,6.67Z" style="fill:#048ebe; stroke-width:0px;"/><path d="m437.09,879.83v-4.66h19.67c.56,1.32.16,2.91.19,4.66h-19.86Z" style="fill:#048ebe; stroke-width:0px;"/><path d="m587.41,329.95c0-3.43,2.4-5.17,4.35-7.22.1-.87-1.41-1.35-.59-2.4,1.38-1.52,1.82,1.1,3.32.54,2.63-2.28,5.56-4.78,8.43-7.35.27-.24.18-.89.26-1.4,1.61.21,2.78-.73,4.15-1.19.5.46.97.91,1.67,1.55-6.51,6.67-13.79,12.33-21.6,17.47Z" style="fill:#048ebe; stroke-width:0px;"/><path d="m364.47,637.87c.77,1.3.86,2.69.29,3.79-1.35,2.59-2.8,5.11-3.82,7.86-.16.42-.65.98-1.03,1.02-3.03.32-4.84,2.65-7.15,4.16-.82.54-1.81.57-2.68-.09-.56-1.55,1.83-2.42.92-3.95,2.05-2.8,4.91-4.56,7.61-6.54.96.71-.18,1.96.71,2.73.22-.11.49-.19.67-.36,1.52-1.37,1.87-3.14,2.08-5.12.14-1.34.47-3.07,2.39-3.49Z" style="fill:#048ebe; stroke-width:0px;"/><path d="m290.1,787.03v-6.49c3.12-3.89,2.96-9.89,7.37-13.51.45.42.9.85,1.43,1.35v3.9c-2.78,4.83-3.38,10.62-8.81,14.75Z" style="fill:#048ebe; stroke-width:0px;"/><path d="m599.49,400.03c-2.52-.25-5.01.06-7.03,1.97-2.55-.94-4.83,1.72-7.53.76.74-1.2,1.69-1.6,2.76-2,5.75-2.19,11.39-4.69,17.23-6.64,1.77-.59,3.75-2.14,6.02-.78.03.62.06,1.26.1,2.18-2.5.95-4.64,2.79-7.75,2.59-1.22-.08-2.72.66-3.79,1.92Z" style="fill:#048ebe; stroke-width:0px;"/><path d="m761.18,890.32c.53-.53.88-.88,1.24-1.24,2.26-.24,4.49-.28,6.5,1.31v5.16c-1.84,2.54-4.35,1-6.36,1.5-.49-.49-.85-.85-1.37-1.37v-5.35Z" style="fill:#048ebe; stroke-width:0px;"/><path d="m322,687c-1.7-.31-.97-2.24-2-3,.63.11.99-.28.98-.78-.08-2.5,1.41-4.13,3.02-5.72,2.12-2.1,4.22-4.21,6.55-6.54.59,1.03.66,1.89.11,2.91-1.25,2.29-2.5,4.59-3.6,6.95-.28.61-.5.87-1.08,1.25-1.44.96-1.6,3.45-3.97,3.14v1.79Z" style="fill:#048ebe; stroke-width:0px;"/><path d="m527,376.51c2.85-1.93,5.32-1.95,7.89-.15,0,1.36,0,2.81,0,4.25-1.36,1.42-2.93,2.39-5.53,2.42-.45-.82-1.09-2-1.73-3.17-.21.21-.42.41-.63.62v-3.98Z" style="fill:#048ebe; stroke-width:0px;"/><path d="m301.9,889.18v7.44c-1.01.92-1.57.22-2.16-.38q-2.34.9-4.61-.56v-5.31c.31-.31.66-.66,1.19-1.19h5.57Z" style="fill:#048ebe; stroke-width:0px;"/><path d="m517.03,338.56v-4.09c.38-.38.72-.72,1.27-1.27h4.11c.84.73,1.8,1.56,2.67,2.31-.72,2.45-1.93,4.22-3.62,5.42-2.24.58-3.02-1.15-4.44-2.37Z" style="fill:#048ebe; stroke-width:0px;"/><path d="m563.95,369.77c-.28,1.67.78,2.18,1.07,3.12-.81,1.26-.96,2.94-2.51,4.02h-3.21c-.47-.72-1.18-1.82-2.28-3.52,0,.04,0-.94,0-1.87.82-1.66,2.89-1.27,3.48-2.42,1.52-.29,1.77,1.55,3.45.68Z" style="fill:#048ebe; stroke-width:0px;"/><path d="m501.09,351.63v-4.28c1.83-.69,3.44-1.89,5.51-1.22.86,1.61,1.9,3.25,1.18,5.67-.64,1.12-2.35,1.34-3.69,2.24-1.4-.23-1.89-1.67-2.99-2.41Z" style="fill:#048ebe; stroke-width:0px;"/><path d="m522.36,350.11c2.08-.46,3.07.94,4.54,1.21v4.31c-1.79.7-3.4,1.93-5.57,1.21-.35-.35-.82-.82-1.31-1.31v-2.39c1.02-1.32,1.82-2.35,2.34-3.02Z" style="fill:#048ebe; stroke-width:0px;"/><path d="m667.08,851.83v-5.66h5.66v5.66h-5.66Z" style="fill:#048ebe; stroke-width:0px;"/><path d="m349.08,851.83v-5.66h5.66v5.66h-5.66Z" style="fill:#048ebe; stroke-width:0px;"/><path d="m468.88,278.57c1.29-.96,1.92-2.52,3.87-2.81v7.21c-.24.67-2.44.92-1.66,2.94h-2.72c-1.58-2.69,1.6-4.87.5-7.34Z" style="fill:#048ebe; stroke-width:0px;"/><path d="m518.75,316.12c-1.88-1.29-2.95-2.03-3.93-2.7.61-1.31,1.07-2.28,1.56-3.34h4.16c1.06.83,1.79,1.67,1.31,3.52-1.03.65-1.54,2.76-3.1,2.52Z" style="fill:#048ebe; stroke-width:0px;"/><path d="m396,596c-.62.11-.96-.27-.98-.78-.06-1.29-.02-2.59-.02-4.11q-1.6,2.19-2.01,4.28c-.94.7-2.55.82-2.89,2.09-.31,1.14-.71,1.92-2.24,2.57.55-2.61,1.81-4.49,2.99-6.37,1.4-2.22,3.19-4.19,4.15-6.69.93-.07,1,.55,1,1.23,0,2.59,0,5.18,0,7.77Z" style="fill:#048ebe; stroke-width:0px;"/><path d="m285.93,440.31c.05-.85.11-1.98.18-3.2.97.4,1.77.73,2.73,1.12v6.37c-2.22,1.23-4.01-.11-5.85-1.33-.19-2.16,2.76-.93,2.95-2.97Z" style="fill:#048ebe; stroke-width:0px;"/><path d="m575.48,272h3.04c.26,1.37,1.7,2.3,1.39,4.47-.7,1.92-2.64,1.66-4.54,1.43-.51-.53-.96-1.01-1.36-1.43-.29-1.81.91-3.03,1.47-4.47Z" style="fill:#048ebe; stroke-width:0px;"/><path d="m401,620c.14.92-.28,1.88.27,2.77,1.67,2.77.82,5.11-1.27,7.23h-1.81c-.09-1.7-.18-3.43-.27-5.25,1.52-1.25,1.25-3.65,3.08-4.75Z" style="fill:#048ebe; stroke-width:0px;"/><path d="m571.1,255.53v-3.06c1.19-1.92,2.88-1.51,4.49-1.38.75.83.21,2.29,1.52,2.51-.39,1.82-1.9,2.24-2.42,3.32-1.54.3-2.75.06-3.59-1.38Z" style="fill:#048ebe; stroke-width:0px;"/><path d="m413,331.5c-1.77.97-.33,3.71-2.52,4.38q-1.52-3.18-1.24-7.74h2.35c0,1.29,1.61,1.95,1.4,3.37Z" style="fill:#048ebe; stroke-width:0px;"/><path d="m568.96,267.92c.96-.96,1.95-1.94,3-2.99,1.03.55,2.08,1.1,3.1,1.64-.24,1.84-1.91,2.28-2.46,3.4-1.85.16-3.11-.26-3.63-2.05Z" style="fill:#048ebe; stroke-width:0px;"/><path d="m474.78,336.05c.93-1.58,1.87-2.32,3.87-1.94.51.67,1.28,1.68,1.69,2.21-.57.8-1.33,1.85-2.13,2.96-1.5-.87-2.41-1.94-3.42-3.24Z" style="fill:#048ebe; stroke-width:0px;"/><path d="m657,294.44q-.1,2.88-1.93,4.61c-1.41-.26-1.9-1.7-2.92-2.38.39-.83.78-1.64,1.2-2.52,1.2-.13,2.47-.47,3.65.3Z" style="fill:#048ebe; stroke-width:0px;"/><path d="m483.08,302.05v-3.69c.21.19.42.37.63.56.33-.76.66-1.52.83-1.93,1.45.04,1.7,1,2.36,1.42,0,1.1,0,2.21,0,3.27-1.16.62-2.3.21-3.82.38Z" style="fill:#048ebe; stroke-width:0px;"/><path d="m629.29,338.02c-1.28-.05-1.54-1-2.19-1.42v-3.46h3.71c.37,1.9.6,3.79-1.52,4.87Z" style="fill:#048ebe; stroke-width:0px;"/><path d="m594.79,347.21c.3,1.19.43,2.15-.55,3.13-.85.84-1.74.59-2.46.65-.73-.56-1.36-1.03-1.83-1.39.1-.63.06-.99.21-1.23,1.19-1.87,2.92-1.5,4.63-1.16Z" style="fill:#048ebe; stroke-width:0px;"/><path d="m526.95,424.23h5.92c.49,1.48-.64,1.88-1.25,2.66-1.14-1.5-2.89-.55-4.25-1.04-.58-.36-.31-.9-.42-1.62Z" style="fill:#048ebe; stroke-width:0px;"/><path d="m507.62,399h-2.16c-.84-1.14-.39-2.41-.36-3.61.73-.74,1.6-.21,2.5-.42.62,1.36.59,2.69.02,4.03Z" style="fill:#048ebe; stroke-width:0px;"/><path d="m559.63,235.39c-1.4,1.9-2.27,3.3-4.15,3.73-.48-3.61-.15-3.97,4.15-3.73Z" style="fill:#048ebe; stroke-width:0px;"/><path d="m367,616v4h-3.72c-.36-1.08-.58-1.9.65-1.98,1.44-.09,1.66-1.94,3.07-2.02Z" style="fill:#048ebe; stroke-width:0px;"/><path d="m394,581c-.81-.12-1.04.63-1.5,1.02-.36.3-.62.7-.93,1.07-1.32-1.46-.24-2.58.23-3.77.02-.05-.21-.21-.33-.32-.01.67-.78-.6-.48,0,.47-1.93,2.02-.62,3-1v3Z" style="fill:#048ebe; stroke-width:0px;"/><path d="m396,630c-1.65-1.04-1.09-2.48-.62-3.85.13-.39.77-.57.62-1.15,1.44,1.63,1.44,3.37,0,5Z" style="fill:#048ebe; stroke-width:0px;"/><path d="m605,226.05c0,.91.18,1.61-.04,2.13-.3.69-.92,1.24-1.39,1.84-.99-.52-.2-2-1.46-2.36.52-.98,1.13-1.78,2.89-1.61Z" style="fill:#048ebe; stroke-width:0px;"/><path d="m400,634h2.46c1.01.74.44,1.73.42,2.62-1.36,1.58-1.82-.86-2.88-.62v-2Z" style="fill:#048ebe; stroke-width:0px;"/><path d="m381.16,357.81v-4.66q2.3.41,0,4.66Z" style="fill:#048ebe; stroke-width:0px;"/><path d="m248.01,431.58c2.18-.73,2.75.41,3.14,2.06-2.36,1-2.46-1.01-3.14-2.06Z" style="fill:#048ebe; stroke-width:0px;"/><path d="m335.92,733.93v2.59c-.42.69-.96.41-1.42.48-.9-.79-.45-1.75-.35-2.64.35-.57.89-.3,1.76-.43Z" style="fill:#048ebe; stroke-width:0px;"/><path d="m682.08,281.96v-1.58c.96-.57,1.84-.54,2.84-.02-.58.92-1.15,1.76-2.84,1.59Z" style="fill:#048ebe; stroke-width:0px;"/><path d="m316.17,752.84v-5.79c1.16,2.6.69,4.2,0,5.79Z" style="fill:#048ebe; stroke-width:0px;"/><path d="m471.27,250.04c-.52-1.63-.17-2.26,1.31-1.97.49.4.57.97.28,1.56-.37.59-.9.31-1.58.42Z" style="fill:#048ebe; stroke-width:0px;"/><path d="m433,422v-2h2v2h-2Z" style="fill:#048ebe; stroke-width:0px;"/><path d="m458,309.51c0-.34,0-.66,0-.99.44-.6,1.01-.66,1.61-.39.61.34.32.89.4,1.35-.66.76-1.33.74-2.01.03Z" style="fill:#048ebe; stroke-width:0px;"/><path d="m498,354.49c0,.34,0,.66,0,.99-.44.6-1.01.66-1.61.39-.61-.34-.32-.89-.4-1.35.66-.76,1.33-.74,2.01-.03Z" style="fill:#048ebe; stroke-width:0px;"/><path d="m367,602v2c-.94.07-1.06-.57-.98-1.24.06-.5.37-.87.98-.76Z" style="fill:#048ebe; stroke-width:0px;"/><path d="m367,612v2c-.94.07-1.06-.57-.98-1.24.06-.5.37-.87.98-.76Z" style="fill:#048ebe; stroke-width:0px;"/><path d="m389,579h-1c-.04-.49.06-.93.66-.79.16.04.23.52.34.79Z" style="fill:#048ebe; stroke-width:0px;"/><path d="m635.88,662.6c1.43.99,1.08,1.65.95,2.41-1.29-.47-.65-1.37-.95-2.41Z" style="fill:#048ebe; stroke-width:0px;"/><path d="m383.08,733.55v-3.11c.95-1.15,1.9-2.04,3.68-1.12v5.39c-1.46.84-2.62.21-3.68-1.16Z" style="fill:#048ebe; stroke-width:0px;"/><path d="m376.4,604.93c-.62-.69-.66-1.68.15-1.84,1.02-.21.15.89.42,1.33.02.04-.36.33-.57.51Z" style="fill:#048ebe; stroke-width:0px;"/><path d="m377,603c-.09-.48.13-.78.59-.89.08-.02.31.22.29.29-.1.46-.41.68-.89.59Z" style="fill:#048ebe; stroke-width:0px;"/><path d="m313.08,477.62v-1.24c.97-.56,1.86-.56,2.83,0v1.24c-.97.56-1.86.56-2.83,0Z" style="fill:#048ebe; stroke-width:0px;"/><path d="m435.99,435.13h2.82v2.92c-2.15-.14-2.9-1.21-2.82-2.92Z" style="fill:#048ebe; stroke-width:0px;"/><path d="m433,436c.59-1.41,1.59-2.41,3-3v2c-1.06.14-1.73,1.49-3,1Z" style="fill:#048ebe; stroke-width:0px;"/><path d="m440.14,445.52c-1.22.63-2.1.68-3.27-.04,1.11-.59,2-.74,3.27.04Z" style="fill:#048ebe; stroke-width:0px;"/></svg>