<?xml version="1.0" encoding="UTF-8"?><svg id="Calque_2" xmlns="http://www.w3.org/2000/svg" viewBox="0 0 512.68 512.68"><path d="m327.51,210.65v224.86c0,.79.5,1.49,1.24,1.76l81.88,29.11c12.81,4.55,26.27-4.94,26.27-18.54v-199.63c0-.79-.5-1.49-1.24-1.76l-105.65-37.56c-1.22-.43-2.49.47-2.49,1.76Z" style="fill:#ffe09d; stroke-width:0px;"/><circle cx="260.37" cy="168.18" r="49.57" style="fill:#ffe09d; stroke-width:0px;"/><path d="m415.59,217.62l-68.7-24.53c4.07-11.24,6.13-23.01,6.13-35.11,0-57.06-46.42-103.48-103.48-103.48s-103.48,46.42-103.48,103.48c0,14.97,3.15,29.43,9.36,42.99.12.31.25.61.42.9,1.07,2.29,2.23,4.53,3.47,6.73l-62.21-19.36c-6.56-2.16-13.52-1.09-19.12,2.95-5.62,4.05-8.84,10.35-8.84,17.28v194.14c0,9.18,5.85,17.3,14.56,20.2.07.02.14.04.21.07l104.4,31.03c1.9.62,3.89.95,5.88,1.02.23.02.46.04.7.04.17,0,.33-.01.5-.03,2.06-.04,4.11-.37,6.07-1l109.34-32.96s.09-.03.14-.04c1.65-.54,3.46-.52,5.07.04l85.46,29.97c6.5,2.25,13.72,1.21,19.31-2.78,5.6-3.99,8.94-10.47,8.94-17.35v-194.13c0-8.98-5.68-17.04-14.13-20.06ZM249.54,67.8c49.72,0,90.17,40.45,90.17,90.17,0,13.19-2.8,25.93-8.34,37.87-.02.04-.04.08-.05.12-3.64,7.83-8.4,15.1-14.13,21.6-.21.24-.4.49-.58.76l-67.37,102.99-67.19-103.46c-.17-.26-.36-.51-.56-.74-5.57-6.4-10.2-13.53-13.75-21.17,0,0,0,0,0,0-.01-.03-.03-.06-.04-.09-5.53-11.93-8.34-24.67-8.34-37.87,0-49.72,40.45-90.17,90.17-90.17ZM87.82,411.16c-3.22-1.11-5.38-4.14-5.38-7.55v-194.14c0-2.6,1.21-4.96,3.32-6.49,2.11-1.52,4.74-1.92,7.2-1.1.04.01.08.03.13.04l78.66,24.48,16.48,25.38v189.23l-100.41-29.85Zm113.71,29.86v-168.75l42.11,64.85c1.22,1.89,3.32,3.03,5.57,3.03h.01c2.24,0,4.34-1.13,5.57-3.01l52.09-79.64v151.76l-105.35,31.76Zm214.88-9.21c0,2.62-1.22,4.99-3.36,6.51-2.13,1.52-4.78,1.9-7.22,1.05l-85.46-29.97c-.06-.02-.13-.04-.19-.06v-172.19l7.31-11.17c5.52-6.32,10.23-13.26,14.06-20.69l69.56,24.84c3.17,1.13,5.31,4.16,5.31,7.53v194.13Z" style="stroke-width:0px;"/><path d="m249.43,214.9c30.88,0,56.01-25.13,56.01-56.01s-25.13-56.01-56.01-56.01-56.01,25.13-56.01,56.01,25.13,56.01,56.01,56.01Zm0-98.72c23.55,0,42.71,19.16,42.71,42.71s-19.16,42.71-42.71,42.71-42.71-19.16-42.71-42.71,19.16-42.71,42.71-42.71Z" style="stroke-width:0px;"/></svg>