<?xml version="1.0" encoding="UTF-8"?><svg id="Calque_3" xmlns="http://www.w3.org/2000/svg" viewBox="0 0 512.68 512.68"><path d="m294.14,271.04c25.37-10.93,43.13-36.15,43.13-65.52,0-39.39-31.93-71.32-71.32-71.32s-71.32,31.93-71.32,71.32c0,30.33,18.94,56.22,45.63,66.53-47.49,12.26-82.44,53.82-82.44,103.22v49.57c6.29,1.33,10.88,5.79,15.7,10.03,4.96,2.27,9.78,4.34,14.85,6.04,4.54.88,9.04,1.91,13.4,3.42,21.4,4.16,42.81,4,64.51,6.12,6.23.61,12.39,1.08,18.54,1.02.64-.81,1.45-1.49,2.48-1.92,8.68-3.61,18.13-3.9,27.11-6.4,9.27-2.58,17.91-6.38,25.77-11.94,10.1-7.14,20.63-14.76,32.29-19.46.53-.21,1.06-.43,1.6-.62.37-.14.74-.27,1.11-.41,1.13-.39,2.26-.77,3.41-1.11-.02-.36.02-.72.06-1.08.01-.13,0-.27.02-.4.06-.34.17-.67.28-.99.05-.14.06-.28.12-.41.13-.31.32-.59.5-.88.08-.12.13-.27.22-.38.29-.39.64-.74,1.04-1.03v-29.18c0-50.86-37.04-93.41-86.67-104.23Z" style="fill:#cecece; stroke-width:0px;"/><path d="m448.91,260.38c0-109.77-89.3-199.07-199.07-199.07S50.76,150.61,50.76,260.38s89.3,199.07,199.07,199.07c44.07,0,84.84-14.41,117.86-38.75,1.67-.46,3.08-1.55,3.97-3,46.96-36.45,77.24-93.41,77.24-157.33Zm-303.63,153.27l-.13-4.48c-.75-24.61-1.52-50.06,8.82-72.3,17.26-34.45,50.96-56.76,89.34-59.78,2.23.19,4.47.31,6.75.31,2.9,0,5.75-.17,8.57-.48,39.44,2.21,74.25,24.74,91.89,59.95,10.35,22.24,9.57,47.69,8.82,72.3l-.03,1c-30.71,22.5-68.56,35.81-109.46,35.81-38.75,0-74.76-11.95-104.56-32.34Zm106.96-150.38c-3.01,0-6,.11-8.96.32-32.44-3.4-57.81-30.91-57.81-64.23,0-35.62,28.97-64.59,64.59-64.59s64.59,28.98,64.59,64.59c0,32.88-24.7,60.08-56.52,64.07-1.95-.09-3.91-.15-5.89-.15Zm120.84,135.77c.47-22.23-.29-46.26-10.4-67.94-.03-.05-.05-.11-.08-.16-15.57-31.15-43.08-53.49-75.65-62.82,24.48-13.19,41.17-39.06,41.17-68.77,0-43.04-35.01-78.05-78.05-78.05s-78.05,35.01-78.05,78.05c0,30.35,17.42,56.69,42.78,69.59-31.36,9.78-57.76,31.72-72.9,61.99-.03.05-.05.11-.08.16-10.76,23.06-10.93,48.79-10.3,72.17-41.07-34.07-67.27-85.48-67.27-142.89,0-102.34,83.26-185.61,185.61-185.61s185.61,83.26,185.61,185.61c0,55.09-24.13,104.64-62.37,138.66Z" style="stroke-width:0px;"/></svg>