<?xml version="1.0" encoding="UTF-8"?><svg id="Calque_5" xmlns="http://www.w3.org/2000/svg" viewBox="0 0 512.68 512.68"><rect x="137.51" y="139.52" width="113.56" height="113.56" rx="17.1" ry="17.1" style="fill:#cecece; stroke-width:0px;"/><rect x="137.51" y="290.06" width="113.56" height="113.55" rx="17.1" ry="17.1" style="fill:#cecece; stroke-width:0px;"/><rect x="287.98" y="139.52" width="113.55" height="113.56" rx="17.1" ry="17.1" style="fill:#cecece; stroke-width:0px;"/><path d="m66.1,174.93c-4.12,0-7.46-3.34-7.46-7.46v-78.75c0-16.37,13.32-29.69,29.69-29.69h78.75c4.12,0,7.46,3.34,7.46,7.46s-3.34,7.46-7.46,7.46h-78.75c-8.14,0-14.77,6.62-14.77,14.76v78.75c0,4.12-3.34,7.46-7.46,7.46Z" style="stroke-width:0px;"/><path d="m445.73,174.69c-4.12,0-7.46-3.34-7.46-7.46v-78.75c0-8.14-6.62-14.76-14.76-14.76h-78.75c-4.12,0-7.46-3.34-7.46-7.46s3.34-7.46,7.46-7.46h78.75c16.37,0,29.69,13.32,29.69,29.69v78.75c0,4.12-3.34,7.46-7.46,7.46Z" style="stroke-width:0px;"/><path d="m167.07,453.21h-78.75c-16.37,0-29.69-13.32-29.69-29.69v-78.75c0-4.12,3.34-7.46,7.46-7.46s7.46,3.34,7.46,7.46v78.75c0,8.14,6.62,14.76,14.77,14.76h78.75c4.12,0,7.46,3.34,7.46,7.46s-3.34,7.46-7.46,7.46Z" style="stroke-width:0px;"/><path d="m423.5,453.21h-78.75c-4.12,0-7.46-3.34-7.46-7.46s3.34-7.46,7.46-7.46h78.75c8.14,0,14.76-6.62,14.76-14.76v-78.75c0-4.12,3.34-7.46,7.46-7.46s7.46,3.34,7.46,7.46v78.75c0,16.37-13.32,29.69-29.69,29.69Z" style="stroke-width:0px;"/><path d="m216.92,242.25h-79.36c-12,0-21.76-9.76-21.76-21.76v-79.36c0-12,9.76-21.76,21.76-21.76h79.36c12,0,21.76,9.76,21.76,21.76v79.36c0,12-9.76,21.76-21.76,21.76Zm-79.36-107.96c-3.77,0-6.84,3.07-6.84,6.84v79.36c0,3.77,3.07,6.84,6.84,6.84h79.36c3.77,0,6.84-3.07,6.84-6.84v-79.36c0-3.77-3.07-6.84-6.84-6.84h-79.36Z" style="stroke-width:0px;"/><path d="m368.08,242.25h-79.36c-12,0-21.76-9.76-21.76-21.76v-79.36c0-12,9.76-21.76,21.76-21.76h79.36c12,0,21.76,9.76,21.76,21.76v79.36c0,12-9.76,21.76-21.76,21.76Zm-79.36-107.96c-3.77,0-6.84,3.07-6.84,6.84v79.36c0,3.77,3.07,6.84,6.84,6.84h79.36c3.77,0,6.84-3.07,6.84-6.84v-79.36c0-3.77-3.07-6.84-6.84-6.84h-79.36Z" style="stroke-width:0px;"/><path d="m216.92,391.49h-79.36c-12,0-21.76-9.76-21.76-21.76v-79.36c0-12,9.76-21.76,21.76-21.76h79.36c12,0,21.76,9.76,21.76,21.76v79.36c0,12-9.76,21.76-21.76,21.76Zm-79.36-107.96c-3.77,0-6.84,3.07-6.84,6.84v79.36c0,3.77,3.07,6.84,6.84,6.84h79.36c3.77,0,6.84-3.07,6.84-6.84v-79.36c0-3.77-3.07-6.84-6.84-6.84h-79.36Z" style="stroke-width:0px;"/><path d="m326.16,375.09h-44.45c-4.12,0-7.46-3.34-7.46-7.46v-41.6c0-4.12,3.34-7.46,7.46-7.46s7.46,3.34,7.46,7.46v34.13h36.99c4.12,0,7.46,3.34,7.46,7.46s-3.34,7.46-7.46,7.46Z" style="stroke-width:0px;"/><path d="m382.38,375.09h-33.37c-4.12,0-7.46-3.34-7.46-7.46s3.34-7.46,7.46-7.46h33.37c4.12,0,7.46,3.34,7.46,7.46s-3.34,7.46-7.46,7.46Z" style="stroke-width:0px;"/><path d="m382.38,341.24c-4.12,0-7.46-3.34-7.46-7.46v-32.23h-36.7c-4.12,0-7.46-3.34-7.46-7.46s3.34-7.46,7.46-7.46h44.16c4.12,0,7.46,3.34,7.46,7.46v39.69c0,4.12-3.34,7.46-7.46,7.46Z" style="stroke-width:0px;"/><path d="m313.14,301.55h-31.44c-4.12,0-7.46-3.34-7.46-7.46s3.34-7.46,7.46-7.46h31.44c4.12,0,7.46,3.34,7.46,7.46s-3.34,7.46-7.46,7.46Z" style="stroke-width:0px;"/></svg>