<?xml version="1.0" standalone="no"?>
<!DOCTYPE svg PUBLIC "-//W3C//DTD SVG 20010904//EN"
 "http://www.w3.org/TR/2001/REC-SVG-20010904/DTD/svg10.dtd">
<svg version="1.0" xmlns="http://www.w3.org/2000/svg"
 width="700.000000pt" height="700.000000pt" viewBox="0 0 700.000000 700.000000"
 preserveAspectRatio="xMidYMid meet">
<metadata>
Created by potrace 1.14, written by Peter Selinger 2001-2017
</metadata>
<g transform="translate(0.000000,700.000000) scale(0.100000,-0.100000)"
fill="#000000" stroke="none">
<path d="M3178 5735 c-2 -1 -30 -5 -63 -8 -296 -29 -590 -173 -820 -402 -121
-120 -182 -201 -256 -340 -48 -91 -113 -267 -125 -340 -3 -22 -8 -43 -10 -47
-16 -26 -24 -304 -12 -413 7 -58 75 -335 85 -345 2 -3 2 13 -1 35 -26 177 -33
267 -30 375 3 90 11 145 40 289 10 48 48 149 89 238 179 382 557 667 968 729
121 18 330 13 442 -11 472 -100 839 -449 960 -912 55 -209 51 -406 -12 -693
-101 -460 -338 -899 -794 -1470 -73 -91 -135 -167 -139 -170 -3 -3 -29 -33
-57 -67 -28 -34 -60 -72 -71 -84 -11 -11 -38 -43 -59 -70 -21 -26 -43 -48 -49
-49 -18 0 -399 394 -569 590 -26 30 -60 69 -74 85 -15 17 -57 68 -94 115 -38
47 -74 93 -82 102 -14 17 -179 249 -202 284 -10 15 -10 13 0 -11 22 -54 139
-269 183 -338 24 -37 44 -70 44 -72 0 -6 67 -103 176 -255 72 -101 205 -272
308 -395 254 -306 282 -333 331 -321 37 9 450 443 635 666 34 41 71 86 83 100
96 113 272 364 362 515 55 93 143 266 175 345 12 30 28 69 35 85 52 120 127
404 153 580 14 96 7 414 -11 506 -86 432 -356 801 -737 1006 -133 71 -349 140
-495 158 -58 7 -301 15 -307 10z"/>
<path d="M3070 4925 c-185 -41 -325 -141 -418 -298 -112 -187 -140 -486 -66
-705 62 -186 202 -338 374 -405 60 -23 78 -28 150 -42 45 -9 174 -7 243 5 256
41 447 216 517 472 30 111 32 134 32 262 -1 129 -11 175 -13 55 -2 -145 -21
-227 -80 -347 -71 -146 -200 -251 -347 -286 -88 -20 -231 -18 -322 5 -254 65
-412 296 -413 604 -1 167 15 248 72 360 66 132 207 240 361 276 148 35 350 3
465 -75 l30 -20 -18 21 c-24 28 -146 87 -222 108 -85 23 -264 28 -345 10z"/>
<path d="M3675 4770 c10 -11 20 -20 23 -20 3 0 -3 9 -13 20 -10 11 -20 20 -23
20 -3 0 3 -9 13 -20z"/>
<path d="M4590 2827 c0 -3 28 -15 63 -27 94 -34 243 -112 323 -169 298 -210
360 -472 166 -703 -182 -217 -578 -392 -1077 -477 -113 -19 -114 -20 -250 -36
-175 -21 -704 -28 -870 -12 -44 4 -107 10 -140 13 -33 3 -93 12 -133 18 -40 7
-69 9 -65 6 21 -18 348 -98 508 -124 54 -9 199 -28 235 -31 377 -32 818 -24
1095 20 17 2 44 7 60 9 60 8 219 37 225 41 4 2 22 7 41 10 19 3 75 17 124 31
429 120 718 300 823 513 33 67 37 84 38 160 2 97 -14 151 -72 239 -96 146
-300 283 -578 386 -108 41 -312 99 -409 117 -34 6 -72 13 -84 15 -13 3 -23 3
-23 1z"/>
<path d="M1294 2211 c-60 -26 -70 -142 -19 -219 31 -47 132 -118 277 -196 95
-50 115 -57 74 -25 -47 37 -69 93 -81 213 -12 116 -42 174 -106 206 -46 24
-115 34 -145 21z"/>
<path d="M1705 2090 c-46 -10 -73 -28 -89 -58 -44 -85 -8 -218 79 -295 50 -45
277 -132 471 -181 75 -19 88 -20 49 -1 -67 31 -115 94 -149 195 -13 41 -27 86
-29 100 -20 102 -79 188 -152 221 -45 19 -134 29 -180 19z"/>
</g>
</svg>
